<?xml version="1.0" encoding="iso-8859-1"?>
<!-- Generator: Adobe Illustrator 19.0.0, SVG Export Plug-In . SVG Version: 6.00 Build 0)  -->
<svg version="1.1" id="Layer_1" xmlns="http://www.w3.org/2000/svg" xmlns:xlink="http://www.w3.org/1999/xlink" x="0px" y="0px"
	 viewBox="0 0 501.999 501.999" style="enable-background:new 0 0 501.999 501.999;" xml:space="preserve">
<g>
	<path style="fill:#D7E6D8;" d="M422.685,251h-0.121H422.685l41.276-72.034L394.215,58.162H258.438l-42.352,73.756l0,0L78.8,132.014
		L10,251.182L78.801,370.35l137.797-0.087l68.995,119.082h137.604L492,370.177L422.685,251z"/>
	<g>
		<polygon class="cells-mark" style="fill:#4FC497;" points="422.173,12.654 284.569,12.654 258.438,58.162 394.215,58.162 463.961,178.966 
			490.975,131.823 		"/>
		<g>
			<path style="fill:#333333;" d="M500.644,365.15l-66.412-114.188l38.406-67.025l27.014-47.144c1.771-3.09,1.764-6.888-0.017-9.972
				L430.834,7.654c-1.786-3.094-5.088-5-8.66-5H284.569c-3.581,0-6.889,1.915-8.672,5.021l-26.131,45.508l-39.471,68.739
				l-131.501,0.092c-3.57,0.003-6.868,1.908-8.653,5L1.339,246.182c-1.786,3.094-1.786,6.906,0,10L70.14,375.35
				c1.786,3.095,5.088,5,8.66,5c0.002,0,0.004,0,0.006,0l132.03-0.083l66.104,114.092c1.788,3.086,5.085,4.986,8.652,4.986h137.604
				c3.572,0,6.874-1.906,8.66-5l68.802-119.168C502.452,372.074,502.446,368.248,500.644,365.15z M290.885,241.057L227.63,131.894
				l36.596-63.733H388.44l63.984,110.822l-35.537,62.018L290.885,241.057z M290.358,22.654H416.4l63.039,109.187l-15.511,27.068
				L402.875,53.162c-1.786-3.094-5.088-5-8.66-5H275.712L290.358,22.654z M21.547,251.182l63.03-109.173l125.749-0.088
				l63.252,109.158l-62.768,109.188l-126.237,0.079L21.547,251.182z M416.934,261.003l63.508,109.193l-63.018,109.149H291.357
				l-63.213-109.102l62.767-109.186L416.934,261.003z"/>
			<path style="fill:#333333;" d="M69.259,251.182l45.496-78.803c2.762-4.783,1.123-10.898-3.66-13.66
				c-4.784-2.762-10.9-1.122-13.66,3.66l-48.383,83.803c-1.786,3.094-1.786,6.906,0,10l17.302,29.967
				c1.853,3.208,5.213,5.002,8.67,5.002c1.696,0,3.416-0.433,4.99-1.342c4.783-2.762,6.422-8.877,3.66-13.66L69.259,251.182z"/>
			<path style="fill:#333333;" d="M104.854,312.836c-2.761-4.781-8.877-6.421-13.66-3.66c-4.783,2.762-6.422,8.877-3.66,13.66
				l9.036,15.65c1.853,3.208,5.213,5.002,8.67,5.002c1.696,0,3.416-0.433,4.99-1.342c4.783-2.762,6.422-8.877,3.66-13.66
				L104.854,312.836z"/>
			<path style="fill:#333333;" d="M389.243,279.33c-4.774,2.777-6.394,8.898-3.617,13.672l45.558,78.331l-40.287,69.779
				c-2.762,4.783-1.123,10.898,3.66,13.66c1.575,0.909,3.294,1.342,4.99,1.342c3.456,0,6.818-1.794,8.67-5.002l43.185-74.798
				c1.792-3.104,1.786-6.93-0.016-10.027l-48.471-83.34C400.139,278.175,394.019,276.554,389.243,279.33z"/>
		</g>
	</g>
</g>
</svg>
