<?xml version="1.0" encoding="iso-8859-1"?>
<!-- Generator: Adobe Illustrator 22.1.0, SVG Export Plug-In . SVG Version: 6.00 Build 0)  -->
<svg version="1.1" id="&#x421;&#x43B;&#x43E;&#x439;_1"
	 xmlns="http://www.w3.org/2000/svg" xmlns:xlink="http://www.w3.org/1999/xlink" x="0px" y="0px" viewBox="0 0 612 792"
	 style="enable-background:new 0 0 612 792;" xml:space="preserve">
<g>
	<path style="fill:#FFFFFF;" d="M-71.186-15.673c256,0,512,0,768,0c0,256,0,512,0,768c-256,0-512,0-768,0
		C-71.186,496.327-71.186,240.327-71.186-15.673z M422.283,306.961c0,0-0.102-0.102-0.102-0.101
		c-1.925,1.286-3.849,2.572-5.774,3.858l-0.023,0.026c-1.537,2.051-3.075,4.102-4.605,6.158c0.039,0.111,0.066,0.311,0.12,0.319
		c0.472,0.067,0.95,0.099,1.832,0.178c-7.684,11.444-8,23.558-3.45,35.866c3.137,8.487,3.606,16.961,1.876,25.716
		c-0.212,1.07,0.092,2.243,0.157,3.368c0.339-0.023,0.679-0.046,1.018-0.069c3.725-8.443,4.614-17.085,1.739-26.06
		c-0.471-1.471-0.411-3.113-0.597-4.676c1.129,0.26,2.245,0.633,3.388,0.758c3.82,0.416,7.65,0.743,11.477,1.104l0.17,0.003
		c3.457,1.879,6.021,6.048,5.249,9.154c-0.679,2.732-1.077,6.677-2.926,7.71c-2.858,1.597-6.847,1.168-10.508,1.617
		c1.052,3.042,3.815,3.074,6.528,3.311c3.869,0.337,7.255-0.802,8.582-4.527c4.808-13.493,5.479-26.707-3.862-38.854
		c0.089,0.034,0.179,0.068,0.268,0.103c-0.098,0-0.196-0.001-0.294-0.001c-0.095-0.164-0.227-0.287-0.397-0.371l0.13-0.127
		l0.066,0.206c-1.939-1.989-3.877-3.978-5.816-5.967c-0.022,0.158-0.045,0.316-0.067,0.474c-2.769-1.429-5.538-2.858-9.149-4.722
		c2.016-2.812,3.707-5.172,5.545-7.736c3.732,3.513,7.642,5.176,11.454,3.015c3.321-1.882,5.865-5.135,9.202-8.195
		c1.271,2.701,3.265,5.894,4.279,9.372c1.163,3.994,1.829,8.223,2.029,12.382c0.217,4.515,0.347,9.239-0.723,13.567
		c-2.083,8.425-5.049,16.631-7.6,24.943c-0.52,1.695-0.818,3.458-1.219,5.189c0.409,0.119,0.818,0.237,1.228,0.356
		c0.773-1.225,1.798-2.359,2.278-3.69c3.372-9.345,6.811-18.673,9.819-28.137c0.912-2.871,1.15-6.266,0.605-9.219
		c-0.893-4.84-0.211-9.296,0.995-13.935c1.372-5.275,0.827-10.524-1.873-15.716c-0.237,0.902-0.389,1.484-0.667,2.543
		c-0.969-2.186-1.552-3.973-2.502-5.538c-1.576-2.597-11.675-3.881-14.155-1.919c-0.42,0.332-0.886,1.116-1.162,1.044
		c-4.938-1.294-7.76,2.109-10.906,4.804c-0.294,0.29-0.588,0.58-0.883,0.87C422.801,305.93,422.542,306.446,422.283,306.961z
		 M249.254,425.375c-0.287,0.324-0.574,0.648-0.861,0.972l0.016,0.039c-0.64,2.259-1.482,4.483-1.884,6.783
		c-1.647,9.41-0.78,18.788,0.82,28.383c4.459-45.241,28.213-74.976,71.341-89.309c-9.265,0.414-17.644,3.27-25.741,7.102
		c-4.442,2.102-9.102,3.887-13.197,6.537c-3.162,2.046-5.598,5.215-8.357,7.884c0,0,0.141-0.123,0.141-0.123
		c-0.154,0.609-0.308,1.218-0.455,1.815c-0.349,0.25-0.698,0.501-1.047,0.751c-2.152,1.166-4.397,2.196-6.404,3.572
		c-0.688,0.472-0.784,1.808-1.15,2.749c1.046-0.296,2.092-0.592,3.137-0.889c-2.115,3.196-4.119,6.475-6.395,9.553
		c-1.066,1.442-2.468,3.097-4.052,3.597c-2.956,0.934-3.577,3.012-4.001,5.516c-0.16,0.945-0.454,1.868-0.686,2.801l-0.033-0.119
		c-0.217,0.46-0.433,0.921-0.65,1.381l0.037,0.013c-0.232,0.366-0.465,0.731-0.697,1.097L249.254,425.375z M173.764,445.542
		c-1.493-2.343-5.242-2.688-8.357,0.013c2.653,0,5.305,0,7.958,0c-3.941,0.205-7.881,0.41-11.822,0.615
		c-0.039-0.223-0.077-0.447-0.116-0.67c0.365-0.236,0.73-0.472,1.295-0.837c-1.249-0.271-2.362-0.512-3.966-0.859
		c0.551-2.402,0.95-4.574,1.551-6.689c4.487-15.778,9.427-31.442,13.365-47.354c2.196-8.874,1.875-18.116-1.764-26.834
		c-1.629-3.902-3.932-7.309-8.425-8.791c2.263,4.272,4.388,8.284,6.951,13.121c-21.885-5.986-36.998-4.437-46.639,1.755
		c-10.999-9.097-15.409-24.006-10.616-36.745c1.346,0.546,2.712,1.033,4.021,1.642c9.864,4.589,20.151,7.26,31.105,6.78
		c3.984-0.175,5.001-1.38,4.992-5.358c-0.011-5.303-3.179-9.466-8.8-10.521c-11.085-2.08-22.235-3.811-33.78-5.757
		c-4.89-43.317,4.192-84.944,20.277-125.521c0.816,2.164,1.143,4.362,1.74,6.485c1.513,5.379,3.071,10.749,4.847,16.044
		c0.179,0.533,1.968,0.527,3.01,0.771c0.645-3.086,4.674-5.324,2.856-7.956c1.282-2.448,3.358-4.675,2.874-5.787
		c-2.188-5.019,2.29-7.744,2.763-11.778c1.18,0.547,1.861,0.863,2.486,1.152c0.516-1.97,0.83-3.677,1.41-5.288
		c1.438-3.994,3.174-4.571,6.919-2.438c2.162,1.231,4.228,2.667,6.483,3.692c13.712,6.231,28.29,6.624,42.961,6.033
		c2.106-0.085,4.173-1.134,6.258-1.736c-1.121-1.671-2.398-3.261-3.323-5.034c-1.148-2.202-2.004-4.556-2.986-6.844
		c2.28,0.164,4.566,0.269,6.84,0.502c8.888,0.911,17.769,1.893,26.658,2.786c4.108,0.413,7.671-1.013,11.128-3.488
		c-1.581-2.177-3.02-4.159-4.881-6.722c1.528-0.263,2.599-0.565,3.682-0.611c3.154-0.136,6.395,2.835,9.514-0.295
		c0.181-0.182,1.169,0.206,1.606,0.551c3.331,2.626,7.545,3.272,12.914,1.641c-1.846-0.172-3.155-0.294-4.463-0.417
		c0.009-0.097,0.018-0.194,0.027-0.291c3.297-0.234,6.594-0.469,10.569-0.751c-1.483,0.636-2.398,1.029-3.313,1.421
		c2.275,0.324,5.571,0.368,6.061-0.784c0.936-2.197,0.272-5.075,0.272-7.578c1.944,0.834,4.348,2.551,6.897,2.801
		c4.028,0.395,6.246,2.83,7.487,5.887c2.042,5.031,3.892,10.262,4.841,15.584c1.156,6.483,1.122,13.167,1.913,19.727
		c1.892,15.695,5.203,31.292,2.738,47.248c-0.171,1.11,0.419,2.337,0.655,3.509c1.138-0.411,2.276-0.822,3.415-1.233
		c0.169-0.289,0.337-0.577,0.506-0.866c7.923,6.426,16.241,12.431,23.669,19.386c8.974,8.403,14.821,18.74,15.263,31.502
		c0.027,0.781,0.41,2.022,0.951,2.237c3.821,1.523,3.763,5.095,4.113,8.12c0.99,8.54,1.517,17.133,2.427,25.683
		c0.153,1.435,0.974,3.182,2.069,4.057c2.757,2.206,5.717,4.25,8.85,5.861c1.977,1.017,4.551,1.835,6.602,1.435
		c1.558-0.304,2.957-2.514,3.995-4.15c2.09-3.292,4.257-5.999,9.48-3.493c0.514-4.397,1.141-8.272,1.389-12.171
		c0.595-9.331,0.827-18.687,1.547-28.007c0.993-12.855,6.676-22.776,18.86-28.213c1.517-0.677,3.224-0.928,4.843-1.377
		c-7.563,6.381-14.791,12.631-15.967,23.221c4.037-8.491,11.076-14.008,18.655-18.927c11.695-7.591,22.827-5.986,32.011,4.506
		c8.965,10.243,9.745,22.604,7.637,34.988c-2.354,13.826-5.81,27.494-9.368,41.078c-2.796,10.675-6.304,21.177-9.89,31.621
		c-0.854,2.487-3.28,4.433-5.038,6.699c-17.568-13.008-34.597-25.618-51.945-38.463c-2,3.282-3.816,6.531-5.903,9.595
		c-1.49,2.189-0.958,3.409,1.098,4.811c4.852,3.308,9.659,6.699,14.291,10.305c4.42,3.441,4.923,9.887,1.433,14.468
		c-3.349,4.396-7.64,4.867-12.809,1.368c-2.898-1.962-5.762-3.973-8.643-5.96c-2.305-1.589-4.613-3.175-6.885-4.738
		c-0.67,0.796-0.954,1.051-1.139,1.365c-19.459,32.913-38.906,65.833-58.366,98.746c-17.615,29.794-35.252,59.576-52.865,89.371
		c-9.538,16.135-19.04,32.291-28.577,48.427c-1.107,1.873-2.124,3.394,1.036,4.482c10.315,3.551,20.588,7.227,30.826,10.993
		c16.394,6.03,32.744,12.183,49.12,18.262c23.278,8.642,46.554,17.289,69.85,25.884c8.468,3.125,16.99,6.106,25.51,9.162
		c47.264-73.061,94.359-145.861,141.545-218.802c-7.414-5.473-14.612-10.806-21.83-16.11c-7.438-5.466-14.911-10.884-22.341-16.361
		c-11.248-8.291-22.479-16.605-33.706-24.925c-7.821-5.796-15.608-11.638-23.444-17.415c-1.838-1.355-2.092-2.381-0.627-4.49
		c2.376-3.418,4.961-7.062,5.977-10.994c6.109-23.637,12.527-47.236,17.34-71.15c2.725-13.539-0.852-26.573-11.08-36.975
		c-0.743-0.756-0.949-2.463-0.775-3.635c2.354-15.941,2.347-31.854-0.219-47.77c-0.871-5.401-2.287-10.827-2.263-16.236
		c0.058-13.102,1.07-26.198,1.216-39.302c0.123-11.055-2.801-21.478-8.388-31.079c-1.627-2.797-3.592-5.418-5.006-8.313
		c-2.899-5.935-5.233-12.159-8.332-17.981c-6.553-12.308-14.263-23.805-25.784-32.135c-5.011-3.623-10.477-6.213-16.91-6.3
		c-2.502-0.034-4.986-0.838-7.499-1.031c-0.97-0.074-2.148,0.357-2.971,0.931c-4.177,2.912-8.267,5.948-12.39,8.938
		c-2.716,1.97-6.941,3.464-7.744,6.031c-0.861,2.75,1.444,6.524,2.464,9.822c1.855,6,3.782,11.978,5.679,17.965
		c-2.154-0.238-3.545-0.992-4.88-1.835c-6.322-3.995-12.668-7.955-18.918-12.061c-1.815-1.193-3.24-1.24-5.06-0.046
		c-6.15,4.034-12.378,7.948-18.597,11.877c-1.602,1.012-3.276,1.91-5.765,3.35c2.913-8.979,5.484-16.905,8.295-25.571
		c-2.57,0.661-4.136,0.991-5.656,1.465c-21.884,6.828-43.925,13.049-66.625,16.564c-16.815,2.603-33.72,4.221-50.724,2.255
		c-12.972-1.5-26.098-2.542-38.764-5.479c-6.928-1.607-11.694-0.17-16.544,3.833c-2.593,2.141-5.613,4.107-7.378,6.838
		c-3.496,5.408-8.492,8.207-14.081,10.843c-4.544,2.143-8.926,5.049-10.999,10.215c-0.599,1.492-1.466,3.098-2.673,4.085
		c-5.601,4.58-9.586,10.197-11.277,17.23c-0.636,2.647-0.507,5.477-0.727,8.224c0.397,0.289,0.794,0.579,1.191,0.868
		c5.317-5.664,11.357-9.752,20.218-10.324c-2.184,1.874-3.624,3.003-4.943,4.258c-9.467,9.002-14.047,20.095-13.941,33.115
		c0.008,0.967,0.758,1.927,1.164,2.89c0.795-0.641,1.89-1.12,2.34-1.949c5.712-10.526,15.106-16.711,25.477-21.733
		c1.379-0.668,2.973-0.891,5.049-1.487c-0.623,1.499-1.002,2.375-1.353,3.263c-3.698,9.362-7.959,18.548-10.946,28.132
		c-3.89,12.479-7.305,25.162-9.957,37.958c-4.122,19.893-5.318,40.068-3.704,60.384c0.996,12.538,3.637,25.006,1.816,37.689
		c-0.137,0.957,0.137,1.981,0.272,2.967c1.285,9.405,8.281,15.34,14.204,21.493c3.362,3.493,4.179,7.128,4.706,11.1
		c0.504,3.791,0.346,7.776-0.19,11.582c-2.082,14.769-1.064,29.372,1.537,43.971c4.118,23.116,10.322,45.64,18.144,67.778
		c9.006,25.492,19.526,50.215,34.521,72.847c0.677,1.022,1.366,2.169,1.581,3.344c1.77,9.675,9.093,14.558,17.381,20.404
		c0.281-2.4,0.834-5.107,0.571-5.189c-3.297-1.025-4.293-4.446-6.613-6.128c-6.03-4.369-7.908-10.569-9.097-17.229
		c-0.669-3.747-0.896-7.573-1.322-11.364c-0.272-0.01-0.543-0.02-0.815-0.029c-0.533,3.151-1.067,6.302-1.742,10.293
		c-1.707-2.806-3.02-4.766-4.137-6.832c-11.105-20.535-19.874-42.085-27.508-64.103c-6.893-19.879-12.727-40.074-16.364-60.826
		c-2.326-13.269-4.319-26.562-2.779-40.167c1.171-10.347,2.684-20.878-3.935-31.239c4.732-1.449,8.878-2.719,13.323-4.08
		c-0.367,7.682,3.34,12.761,9.329,13.023c2.194,0.096,4.709-0.754,6.617-1.924c3.492-2.142,4.047-5.912,3.73-9.959
		c4.052,0.751,7.702,1.427,12.407,2.299c-0.472,6.394-0.086,13.136-1.616,19.411c-3.205,13.143-7.569,25.999-11.152,39.057
		c-1.694,6.174-5.674,12.244-1.927,19.045c0.232,0.421-0.127,1.178-0.236,1.775c-1.601,8.792-3.183,17.588-4.818,26.374
		c-1.232,6.622,0.853,11.335,7.453,13.751c2.882,1.055,5.021,2.746,5.698,6.221c0.671,3.444,3.013,5.21,6.915,4.502
		c0.899-0.163,2.386,0.929,3.037,1.845c0.989,1.392,1.543,3.112,2.177,4.734c2.493,6.382,2.772,12.59-1.368,18.521
		c-1.493,2.139-2.971,4.345-4.043,6.708c-2.052,4.524-2.557,9.098,0.796,13.376c3.152,4.021,6.011,8.318,9.519,11.998
		c2.613,2.742,6.055,4.695,9.127,6.999c0.301-0.377,0.603-0.753,0.904-1.13c-3.951-3.968-7.901-7.935-12.019-12.07
		c5.7-1.86,10.659-3.517,15.643-5.095c5.896-1.868,11.783-5.497,13.691-8.663c-0.982,0.356-1.767,0.732-2.595,0.925
		c-8.348,1.949-16.628,4.377-25.082,5.623c-6.021,0.887-8.718-3.322-6.61-9.105c0.844-2.316,2.058-4.568,3.468-6.596
		c5.442-7.835,5.511-15.789,0.879-23.941c-0.762-1.34-1.663-2.601-2.625-4.092c1.592-0.277,2.787-0.484,4.249-0.738
		c0.95,2.611,1.905,5.029,2.714,7.494c2.062,6.288,3.478,12.557-1.073,18.486c-0.266,0.346-0.26,0.946-0.275,1.431
		c-0.158,5.141,5.337,11.235,10.45,10.629c5.381-0.638,10.967-1.634,15.866-3.815c11.343-5.047,17.952-13.592,16.788-26.783
		c-0.21-2.385-0.03-4.804-0.03-6.44c5.545,9.72,11.383,19.953,17.393,30.489c1.561-2.061,2.582-3.409,3.362-4.439
		c-2.26-3.399-4.499-6.485-6.448-9.743c-14.755-24.658-22.89-51.074-21.068-80.101c0.699-11.132,1.83-22.164,7.843-31.981
		c1.36-2.221,2.934-4.311,4.41-6.461c-0.237-0.208-0.474-0.415-0.711-0.623c-1.57,1.514-3.639,2.761-4.618,4.591
		c-3.09,5.772-6.974,11.488-8.393,17.717c-4.944,21.708-3.649,43.365,2.825,64.699c0.424,1.397,0.281,2.967,0.402,4.456
		c-0.276,0.143-0.551,0.286-0.827,0.428c-6.314-10.271-16.158-13.144-27.243-13.719c-10.754-0.558-21,1.09-31.067,6.577
		c0.854-1.186,1.306-1.814,2.291-3.182c-3.088,1.207-5.328,2.083-8.7,3.401c1.051-11.701,2.031-22.612,3.01-33.51
		c14.387,1.415,27.269-0.81,39.712-5.796c8.084-3.239,10.296-8.206,7.71-16.641c-0.938-3.059-2.584-5.414-6.326-7.505
		c0.718,1.929,1.264,2.883,1.415,3.896c0.521,3.509,1.064,7.031,1.222,10.565c0.038,0.853-0.723,1.839-2.211,2.697
		c-2.791,1.609-5.604,2.08-8.471,2.88c-0.19,0.053-0.122,0.771-0.352,1.004c-0.394,0.4-0.911,0.908-1.407,0.943
		c-3.877,0.268-7.788,0.234-11.628,0.743C176.022,443.162,174.933,444.655,173.764,445.542z M156.503,106.196
		c54.931,14.146,107.342,4.009,159.449-13.734c-6.591-4.548-12.87-8.88-19.987-13.79c2.049-0.283,2.984-0.514,3.922-0.525
		c8.118-0.101,16.248-0.443,24.351-0.12c4.1,0.164,5.332-2.12,6.017-5.118c0.707-3.096-2.273-3.15-4.032-3.776
		c-15.622-5.558-31.817-6.805-48.229-5.953c-1.686,0.088-3.247,1.823-4.97,2.072c-7.617,1.1-15.371,1.448-22.892,2.972
		c-14.299,2.897-28.604,5.991-41.67,12.954c-2.167,1.155-4.275,2.554-6.586,3.275c-5.101,1.591-10.412,2.536-15.462,4.258
		C175.354,92.483,165.27,98.032,156.503,106.196z M250.88,302.294c-7.459,0.038-14.165,2.406-20.331,6.507
		c-7.76,5.161-16.134,8.943-25.354,10.503c-3.249,0.549-3.159,1.997-2.156,4.386c2.736,6.517,8.926,9.312,15.274,6.242
		c4.917-2.378,9.564-5.365,14.164-8.34c7.217-4.667,14.866-6.782,23.46-5.135c5.246,1.006,10.531,1.909,15.84,2.431
		c1.546,0.152,4.057-0.769,4.621-1.929c0.52-1.068-0.557-3.532-1.662-4.671C268.245,305.604,260.041,302.741,250.88,302.294z
		 M604.384,402.36c-0.074-0.46-0.149-0.921-0.223-1.381c-0.81-0.07-1.631-0.261-2.428-0.191c-14.547,1.277-29.068,3.086-43.642,3.76
		c-18.457,0.853-36.956,0.824-55.438,1.071c-2.218,0.03-4.491-0.404-6.659-0.941c-10.365-2.571-13.015-10.533-5.789-18.248
		c4.677-4.994,9.713-9.763,15.132-13.923c5.914-4.54,12.474-8.237,18.701-12.377c0.7-0.465,1.073-1.422,1.598-2.15
		c-0.86-0.281-1.709-0.728-2.584-0.79c-0.699-0.05-1.419,0.446-2.151,0.569c-7.611,1.273-15.19,2.885-22.853,3.65
		c-5.432,0.542-7.309-1.912-7.515-7.329c-0.282-7.419,1.414-14.353,4.647-20.963c4.839-9.894,11.956-18.073,19.55-25.891
		c2.977-3.064,5.943-6.138,8.915-9.208c-0.248-0.281-0.495-0.561-0.743-0.842c-1.261,0.891-2.616,1.674-3.768,2.689
		c-8.748,7.705-16.814,16.051-23.09,25.936c-5.587,8.802-9.063,18.294-8.564,28.944c0.308,6.556,3.514,9.913,10.14,9.82
		c4.569-0.064,9.129-0.734,14.412-1.197c-1.369,1.075-2.334,1.744-3.197,2.525c-7.565,6.844-15.713,13.167-22.491,20.719
		c-6.564,7.313-3.798,16.26,5.458,19.824c3.974,1.53,8.479,2.185,12.769,2.305c28.003,0.784,55.944-0.275,83.761-3.746
		C593.708,404.324,599.035,403.249,604.384,402.36z M268.803,357.142c0.162-0.295,0.324-0.591,0.486-0.886
		c-1.628-0.982-3.143-2.306-4.903-2.889c-8.563-2.836-17.46-3.288-26.226-1.837c-4.884,0.808-9.634,3.066-14.144,5.283
		c-3.463,1.703-5.538,5.43-5.702,7.317c3.912-2.539,8.268-5.367,13.112-8.511c0.607,8.273,3.851,12.043,9.711,12.405
		c6.12,0.378,9.675-3.456,11.586-12.761c2.698,0.339,5.419,0.681,8.801,1.106c-8.348,14.857-21.696,14.104-35.339,13.235
		c10.955,8.767,31.509,2.077,39.347-12.463C266.595,357.142,267.699,357.142,268.803,357.142z M345.975,65.725
		c-0.252,0.329-0.504,0.658-0.756,0.986c1.094,2.741,2.249,5.459,3.264,8.229c0.784,2.138,2.07,3.007,4.457,3.038
		c6.586,0.087,13.167,0.483,19.75,0.745c0.922,0.037,1.846,0.005,2.769,0.005c0.065-0.492,0.131-0.984,0.196-1.477
		C365.762,73.41,355.869,69.568,345.975,65.725z M130.082,373.179c1.019,7.594,10.454,13.62,18.894,13.073
		c10.329-0.669,19.747-7.086,19.698-14.291C156.365,385.538,143.717,388.104,130.082,373.179z M474.052,330.7
		c0.414,0.22,0.828,0.439,1.242,0.659c5.422-3.397,17.753-29.122,16.274-34.173C485.697,308.418,479.875,319.559,474.052,330.7z
		 M279.052,359.968c10.434-6.096,21.796-9.508,33.663-11.461C305.099,345.306,285.088,352.228,279.052,359.968z M510.493,426.646
		c-0.721-0.495-1.167-1.058-1.659-1.101c-7.173-0.627-14.35-1.23-21.536-1.68c-0.639-0.04-1.347,1.022-2.023,1.572
		c0.695,0.536,1.375,1.514,2.089,1.539c7.194,0.258,14.393,0.371,21.592,0.475C509.366,427.457,509.782,427.032,510.493,426.646z"/>
	<path d="M173.764,445.542c1.169-0.887,2.258-2.38,3.523-2.548c3.84-0.51,7.751-0.476,11.628-0.743
		c0.495-0.034,1.013-0.542,1.407-0.943c0.23-0.234,0.161-0.951,0.352-1.004c2.867-0.8,5.68-1.271,8.471-2.88
		c1.488-0.858,2.249-1.844,2.211-2.697c-0.158-3.534-0.702-7.056-1.222-10.565c-0.15-1.013-0.697-1.967-1.415-3.896
		c3.742,2.09,5.388,4.446,6.326,7.505c2.586,8.435,0.374,13.402-7.71,16.641c-12.443,4.986-25.325,7.211-39.712,5.796
		c-0.979,10.898-1.959,21.809-3.01,33.51c3.372-1.318,5.612-2.194,8.7-3.401c-0.985,1.368-1.437,1.996-2.291,3.182
		c10.067-5.487,20.314-7.135,31.067-6.577c11.085,0.576,20.929,3.448,27.243,13.719c0.276-0.143,0.551-0.286,0.827-0.428
		c-0.121-1.489,0.022-3.059-0.402-4.456c-6.475-21.334-7.769-42.991-2.825-64.699c1.419-6.229,5.303-11.945,8.393-17.717
		c0.98-1.83,3.048-3.077,4.618-4.591c0.237,0.208,0.474,0.415,0.711,0.623c-1.476,2.15-3.049,4.24-4.41,6.461
		c-6.013,9.817-7.144,20.849-7.843,31.981c-1.823,29.027,6.313,55.443,21.068,80.101c1.949,3.258,4.188,6.343,6.448,9.743
		c-0.78,1.029-1.801,2.378-3.362,4.439c-6.01-10.535-11.849-20.769-17.393-30.489c0,1.636-0.18,4.056,0.03,6.44
		c1.164,13.191-5.445,21.735-16.788,26.783c-4.9,2.18-10.486,3.177-15.866,3.815c-5.114,0.606-10.608-5.488-10.45-10.629
		c0.015-0.485,0.009-1.085,0.275-1.431c4.551-5.929,3.135-12.197,1.073-18.486c-0.808-2.466-1.763-4.883-2.714-7.494
		c-1.462,0.254-2.657,0.461-4.249,0.738c0.962,1.491,1.863,2.752,2.625,4.092c4.632,8.152,4.563,16.106-0.879,23.941
		c-1.409,2.029-2.623,4.28-3.468,6.596c-2.108,5.784,0.588,9.993,6.61,9.105c8.454-1.246,16.734-3.674,25.082-5.623
		c0.828-0.193,1.613-0.57,2.595-0.925c-1.908,3.166-7.795,6.795-13.691,8.663c-4.984,1.579-9.943,3.235-15.643,5.095
		c4.118,4.135,8.068,8.103,12.019,12.07c-0.301,0.377-0.603,0.753-0.904,1.13c-3.073-2.304-6.514-4.257-9.127-6.999
		c-3.507-3.68-6.367-7.977-9.519-11.998c-3.353-4.278-2.848-8.852-0.796-13.376c1.072-2.363,2.55-4.569,4.043-6.708
		c4.14-5.931,3.861-12.139,1.368-18.521c-0.633-1.622-1.188-3.342-2.177-4.734c-0.651-0.916-2.138-2.008-3.037-1.845
		c-3.903,0.708-6.244-1.059-6.915-4.502c-0.677-3.475-2.816-5.166-5.698-6.221c-6.6-2.416-8.686-7.129-7.453-13.751
		c1.635-8.786,3.217-17.582,4.818-26.374c0.109-0.596,0.468-1.354,0.236-1.775c-3.747-6.801,0.233-12.871,1.927-19.045
		c3.583-13.058,7.947-25.914,11.152-39.057c1.53-6.275,1.144-13.017,1.616-19.411c-4.705-0.872-8.355-1.548-12.407-2.299
		c0.317,4.047-0.238,7.817-3.73,9.959c-1.908,1.17-4.423,2.02-6.617,1.924c-5.989-0.262-9.696-5.341-9.329-13.023
		c-4.444,1.361-8.59,2.631-13.323,4.08c6.619,10.361,5.106,20.892,3.935,31.239c-1.54,13.605,0.454,26.898,2.779,40.167
		c3.637,20.752,9.471,40.947,16.364,60.826c7.635,22.017,16.404,43.567,27.508,64.103c1.117,2.066,2.43,4.026,4.137,6.832
		c0.676-3.991,1.209-7.142,1.742-10.293c0.272,0.01,0.543,0.02,0.815,0.029c0.426,3.791,0.653,7.617,1.322,11.364
		c1.189,6.66,3.067,12.859,9.097,17.229c2.32,1.681,3.316,5.102,6.613,6.128c0.263,0.082-0.29,2.789-0.571,5.189
		c-8.288-5.846-15.611-10.729-17.381-20.404c-0.215-1.175-0.904-2.322-1.581-3.344c-14.995-22.633-25.514-47.355-34.521-72.847
		c-7.821-22.138-14.026-44.662-18.144-67.778c-2.601-14.599-3.618-29.202-1.537-43.971c0.536-3.805,0.694-7.79,0.19-11.582
		c-0.528-3.972-1.344-7.607-4.706-11.1c-5.923-6.153-12.919-12.088-14.204-21.493c-0.135-0.986-0.409-2.011-0.272-2.967
		c1.821-12.683-0.82-25.152-1.816-37.689c-1.614-20.316-0.418-40.491,3.704-60.384c2.652-12.796,6.067-25.479,9.957-37.958
		c2.987-9.584,7.248-18.77,10.946-28.132c0.351-0.888,0.73-1.764,1.353-3.263c-2.076,0.596-3.67,0.819-5.049,1.487
		c-10.371,5.022-19.766,11.207-25.477,21.733c-0.45,0.829-1.545,1.307-2.34,1.949c-0.405-0.963-1.156-1.924-1.164-2.89
		c-0.106-13.021,4.474-24.113,13.941-33.115c1.32-1.255,2.759-2.384,4.943-4.258c-8.86,0.571-14.9,4.659-20.218,10.324
		c-0.397-0.289-0.794-0.579-1.191-0.868c0.22-2.747,0.091-5.577,0.727-8.224c1.691-7.033,5.676-12.65,11.277-17.23
		c1.207-0.987,2.074-2.594,2.673-4.085c2.073-5.166,6.455-8.072,10.999-10.215c5.589-2.636,10.585-5.435,14.081-10.843
		c1.765-2.731,4.785-4.697,7.378-6.838c4.85-4.004,9.616-5.44,16.544-3.833c12.665,2.937,25.791,3.979,38.764,5.479
		c17.004,1.967,33.909,0.349,50.724-2.255c22.7-3.514,44.74-9.736,66.625-16.564c1.52-0.474,3.086-0.804,5.656-1.465
		c-2.811,8.666-5.382,16.592-8.295,25.571c2.489-1.441,4.163-2.338,5.765-3.35c6.218-3.929,12.447-7.842,18.597-11.877
		c1.82-1.194,3.245-1.147,5.06,0.046c6.249,4.106,12.595,8.066,18.918,12.061c1.335,0.843,2.726,1.597,4.88,1.835
		c-1.897-5.987-3.823-11.965-5.679-17.965c-1.02-3.297-3.324-7.072-2.464-9.822c0.803-2.567,5.028-4.061,7.744-6.031
		c4.123-2.99,8.213-6.026,12.39-8.938c0.823-0.574,2.001-1.005,2.971-0.931c2.512,0.193,4.996,0.997,7.499,1.031
		c6.432,0.087,11.898,2.676,16.91,6.3c11.521,8.33,19.232,19.827,25.784,32.135c3.099,5.821,5.433,12.045,8.332,17.981
		c1.414,2.895,3.379,5.517,5.006,8.313c5.587,9.601,8.511,20.024,8.388,31.079c-0.146,13.104-1.158,26.2-1.216,39.302
		c-0.024,5.409,1.392,10.835,2.263,16.236c2.566,15.916,2.573,31.828,0.219,47.77c-0.173,1.172,0.032,2.879,0.775,3.635
		c10.229,10.403,13.805,23.436,11.08,36.975c-4.813,23.914-11.231,47.513-17.34,71.15c-1.016,3.931-3.601,7.575-5.977,10.994
		c-1.466,2.109-1.211,3.134,0.627,4.49c7.835,5.777,15.623,11.619,23.444,17.415c11.227,8.32,22.457,16.635,33.706,24.925
		c7.43,5.476,14.903,10.895,22.341,16.361c7.218,5.305,14.416,10.637,21.83,16.11c-47.186,72.941-94.281,145.741-141.545,218.802
		c-8.521-3.055-17.042-6.037-25.51-9.162c-23.295-8.595-46.572-17.242-69.85-25.884c-16.376-6.08-32.726-12.232-49.12-18.262
		c-10.238-3.766-20.512-7.442-30.826-10.993c-3.16-1.088-2.143-2.609-1.036-4.482c9.537-16.136,19.039-32.292,28.577-48.427
		c17.613-29.795,35.249-59.577,52.865-89.371c19.46-32.913,38.906-65.833,58.366-98.746c0.185-0.314,0.469-0.569,1.139-1.365
		c2.272,1.563,4.58,3.149,6.885,4.738c2.881,1.987,5.745,3.998,8.643,5.96c5.169,3.499,9.46,3.028,12.809-1.368
		c3.49-4.581,2.987-11.027-1.433-14.468c-4.632-3.606-9.439-6.997-14.291-10.305c-2.056-1.401-2.588-2.622-1.098-4.811
		c2.087-3.064,3.903-6.313,5.903-9.595c17.348,12.845,34.377,25.455,51.945,38.463c1.758-2.265,4.185-4.212,5.038-6.699
		c3.586-10.444,7.094-20.946,9.89-31.621c3.558-13.584,7.014-27.251,9.368-41.078c2.109-12.385,1.328-24.746-7.637-34.988
		c-9.184-10.493-20.316-12.097-32.011-4.506c-7.579,4.919-14.618,10.436-18.655,18.927c1.176-10.591,8.404-16.84,15.967-23.221
		c-1.619,0.449-3.326,0.7-4.843,1.377c-12.184,5.437-17.867,15.358-18.86,28.213c-0.72,9.32-0.952,18.676-1.547,28.007
		c-0.249,3.899-0.875,7.774-1.389,12.171c-5.223-2.505-7.39,0.201-9.48,3.493c-1.038,1.636-2.438,3.846-3.995,4.15
		c-2.051,0.4-4.625-0.418-6.602-1.435c-3.134-1.612-6.093-3.655-8.85-5.861c-1.094-0.875-1.916-2.623-2.069-4.057
		c-0.91-8.551-1.437-17.143-2.427-25.683c-0.351-3.025-0.293-6.597-4.113-8.12c-0.541-0.216-0.924-1.456-0.951-2.237
		c-0.441-12.762-6.289-23.099-15.263-31.502c-7.428-6.955-15.745-12.96-23.669-19.386c-0.169,0.289-0.337,0.577-0.506,0.866
		c-1.138,0.411-2.276,0.822-3.415,1.233c-0.236-1.173-0.827-2.4-0.655-3.509c2.465-15.956-0.847-31.553-2.738-47.248
		c-0.791-6.56-0.756-13.245-1.913-19.727c-0.949-5.322-2.799-10.552-4.841-15.584c-1.241-3.057-3.458-5.492-7.487-5.887
		c-2.548-0.25-4.953-1.968-6.897-2.801c0,2.503,0.664,5.381-0.272,7.578c-0.49,1.151-3.786,1.107-6.061,0.784
		c0.915-0.392,1.829-0.785,3.313-1.421c-3.974,0.283-7.272,0.517-10.569,0.751c-0.009,0.097-0.018,0.194-0.027,0.291
		c1.309,0.122,2.617,0.244,4.463,0.417c-5.369,1.631-9.583,0.984-12.914-1.641c-0.438-0.345-1.425-0.733-1.606-0.551
		c-3.118,3.13-6.36,0.158-9.514,0.295c-1.083,0.047-2.154,0.348-3.682,0.611c1.861,2.563,3.301,4.546,4.881,6.722
		c-3.456,2.475-7.019,3.901-11.128,3.488c-8.89-0.893-17.77-1.875-26.658-2.786c-2.273-0.233-4.559-0.338-6.84-0.502
		c0.982,2.288,1.838,4.642,2.986,6.844c0.925,1.774,2.202,3.363,3.323,5.034c-2.085,0.603-4.152,1.651-6.258,1.736
		c-14.671,0.592-29.249,0.198-42.961-6.033c-2.255-1.024-4.321-2.461-6.483-3.692c-3.745-2.133-5.481-1.555-6.919,2.438
		c-0.58,1.611-0.894,3.317-1.41,5.288c-0.625-0.29-1.306-0.606-2.486-1.152c-0.473,4.033-4.951,6.759-2.763,11.778
		c0.484,1.111-1.592,3.338-2.874,5.787c1.817,2.631-2.211,4.87-2.856,7.956c-1.042-0.244-2.831-0.237-3.01-0.771
		c-1.776-5.294-3.335-10.665-4.847-16.044c-0.597-2.123-0.925-4.321-1.74-6.485c-16.084,40.577-25.167,82.204-20.277,125.521
		c11.544,1.946,22.695,3.677,33.78,5.757c5.622,1.055,8.789,5.218,8.8,10.521c0.008,3.978-1.008,5.183-4.992,5.358
		c-10.954,0.48-21.242-2.19-31.105-6.78c-1.309-0.609-2.675-1.096-4.021-1.642c-4.792,12.74-0.382,27.649,10.616,36.745
		c9.641-6.192,24.754-7.741,46.639-1.755c-2.562-4.837-4.687-8.849-6.951-13.121c4.492,1.483,6.795,4.889,8.425,8.791
		c3.64,8.718,3.961,17.96,1.764,26.834c-3.938,15.913-8.879,31.576-13.365,47.354c-0.601,2.114-1,4.286-1.551,6.689
		c1.604,0.347,2.717,0.588,3.966,0.859c-0.564,0.365-0.929,0.601-1.295,0.837c0.039,0.223,0.077,0.447,0.116,0.67
		c3.941-0.205,7.881-0.41,11.82-0.615c-0.001,0,0.177-0.015,0.177-0.015S173.764,445.542,173.764,445.542z M354.437,522.551
		c-5.736,2.756-7.02,8.313-8.536,13.693c-0.118,0.419,0.273,1.256,0.659,1.457c0.33,0.173,1.305-0.148,1.458-0.49
		c2.186-4.882,4.28-9.805,6.374-14.75c0.964-1.71,1.927-3.42,2.891-5.13c0.835,1.813,1.67,3.626,2.533,5.5
		c1.364-3.772,2.774-7.674,4.185-11.575c0.315,0.101,0.63,0.203,0.945,0.304c0,1.094,0,2.187,0,4.307
		c6.011-10.722,7.607-22.513,15.745-31.864c0,1.453,0.251,2.349-0.039,3.006c-2.614,5.908-5.339,11.767-7.997,17.656
		c-1.421,3.148-3.83,6.314-3.87,9.496c-0.043,3.48-1.199,6.17-2.477,9.065c-0.106,0.241,0.147,0.641,0.518,2.04
		c1.635-3.689,2.711-6.648,4.218-9.367c1.5-2.706,3.434-5.172,5.177-7.743c0.278,0.153,0.556,0.307,0.834,0.46
		c-0.458,1.088-0.845,2.212-1.389,3.256c-1.718,3.298-4.104,6.395-5.089,9.891c-1.153,4.095-5.109,5.338-6.986,8.517
		c-0.791,1.34-1.884,2.524-2.489,3.93c-0.105,0.244,1.496,1.707,2.388,1.793c1.786,0.173,3.534-0.051,4.214-2.456
		c0.548-1.938,1.762-3.687,2.681-5.52c0.351,0.191,0.703,0.383,1.055,0.574c-1.132,2.868-2.41,5.69-3.333,8.624
		c-0.455,1.445-0.508,3.133-0.296,4.648c0.509,3.639,1.897,7.264,1.765,10.852c-0.118,3.212,0.655,5.488,3.315,6.698
		c2.876,1.309,5.8,1.013,8.082-1.686c0.5-0.591,1.286-1.086,2.032-1.29c1.202-0.328,2.481-0.376,4.122-0.596
		c0.401,0.471,1.177,1.382,1.695,1.99c1.175-0.456,1.994-0.774,2.813-1.092l-0.092-0.101c0.485,0.568,1.198,1.06,1.418,1.717
		c1.573,4.699,5.232,5.491,9.266,5.252c0.887,5.019-3.065,5.024-6.215,6.271c1.075-1.925,2.005-3.59,2.935-5.255
		c-1.548-0.407-2.353-0.23-3.121,0.048c-2.806,1.014-6.256-0.19-7.874-2.544c-0.516-0.75-1.593-1.113-2.413-1.654
		c-0.047,1.229-0.531,2.71-0.011,3.612c0.467,0.81,1.999,1.19,3.128,1.396c2.474,0.453,4.176,1.404,3.882,4.413
		c-0.806,0-1.528,0-2.267,0.016c-1.283-0.733-2.647-1.354-3.833-2.22c-2.692-1.968-3.142-0.267-4.08,2.145c3.135,0,5.574,0,8.012,0
		c-0.007,1.072-0.014,2.144-0.021,3.216c0,0,0.194,0.01,0.194,0.01c-3.525-0.596-7.038-1.57-10.579-1.684
		c-3.644-0.118-7.316,0.593-10.973,0.964c-0.661,0.067-1.31,0.246-2.354,0.45c0.721,1.083,1.209,1.815,1.537,2.308
		c-2.395-0.21-4.691-0.411-6.987-0.612c-0.042,0.405-0.085,0.81-0.127,1.216c2.248,1.099,4.41,2.464,6.768,3.223
		c2.515,0.809,5.214,1.043,8.265,1.608c-2.866,2.911-1.163,5.359,1.246,6.637c1.577,0.837,4.34,0.629,6.027-0.209
		c2.542-1.262,4.607-3.484,6.874-5.297l-0.09,0.015c2.002-0.294,4-0.639,6.011-0.848c0.51-0.053,1.065,0.326,1.599,0.506
		c-0.299,0.56-0.459,1.378-0.924,1.628c-1.186,0.636-2.508,1.018-3.776,1.502c2.408,0.434,4.567,0.101,6.727-0.225
		c2.056-0.31,4.113-0.614,6.169-0.921c0.189,0.394,0.377,0.788,0.566,1.182c-2.57,2.596-4.899,5.509-7.776,7.704
		c-3.126,2.385-6.76,4.103-10.173,6.112c0.376-6.211,3.843-8.421,9.744-8.011c-3.233-2.814-4.806-2.95-8.236-1.325
		c-4.733,2.243-5.578,6.305-4.888,11.059c-1.281,0.233-2.393,0.435-3.95,0.718c1.436,1.891,2.595,3.417,4.099,5.397
		c-2.048,1.03-3.836,1.929-6.586,3.311c5.349,2.417,10.072,4.551,14.822,6.697c0.313-0.36,0.556-0.521,0.621-0.736
		c0.326-1.071,0.623-2.153,0.899-3.238c2.584-10.165,9.416-16.145,19.268-18.495c5.063-1.208,8.956,2.492,13.033,4.938
		c2.7,1.619,3.701,3.626,3.006,6.819c-0.444,2.041-0.762,5.755,0.066,6.141c3.423,1.596,2.27,4.296,2.536,6.684
		c-1.11-0.416-2.221-0.832-3.777-1.416c0.267,1.398,0.434,2.275,0.582,3.049c-1.076-0.062-2.084-0.121-3.15-0.182
		c0.487,1.866,0.867,3.324,1.247,4.782c-0.298,0.124-0.595,0.247-0.893,0.371c-1.054-0.776-2.108-1.553-2.864-2.11
		c-8.369,5.036-15.381,10.831-16.409,20.824c-5.538,0.36-10.894,0.707-16.25,1.055c-0.032-0.466-0.064-0.932-0.096-1.398
		c1.247-0.224,2.495-0.447,3.742-0.671c0.006-0.435,0.012-0.871,0.018-1.306c-1.855-0.032-3.722-0.219-5.562-0.066
		c-4.532,0.376-6.248,3.8-7.844,7.244c1.052,1.191,1.776,2.509,2.889,3.136c1.211,0.683,2.885,1.217,4.18,0.951
		c3.387-0.697,6.735-1.709,9.99-2.894c2.911-1.061,5.012-0.289,7.558,3.013c-2.066,0.272-3.593,0.909-4.854,0.567
		c-6.804-1.844-10.148-0.897-11.575,3.745c4.787,1.97,9.586,3.946,14.689,6.046c9.505-15.06,18.902-29.947,28.298-44.834
		c6.158-9.412,12.317-18.824,18.475-28.236c-0.207-0.131-0.413-0.262-0.62-0.393c-0.743,0.516-1.486,1.033-3.002,2.086
		c0-3.464-0.076-6.163,0.016-8.857c0.198-5.85,0.988-11.735,0.565-17.534c-0.327-4.476-1.806-8.962-3.357-13.232
		c-2.322-6.394-5.225-12.574-7.717-18.91c-0.524-1.331-0.387-2.94-0.469-4.425c-0.386-6.996-3.446-13.587-8.77-17.002
		c-21.717-13.927-44.026-26.931-66.364-40.423c-10.004,16.689-19.98,33.33-29.956,49.972c0.337,0.207,0.675,0.414,1.012,0.621
		c5.475-9.045,10.951-18.091,16.426-27.136c0.692,3.326-1.644,6.574,0.888,10.013c1.741-4.978,3.238-9.256,4.735-13.535
		c0.409,0.12,0.817,0.241,1.226,0.361c-0.189,1.136-0.395,2.27-0.562,3.409c-0.198,1.353-0.475,2.709-0.497,4.067
		c-0.013,0.811,0.398,1.63,0.619,2.445c2.025-9.068,4.902-15.44,10.307-16.148c-2.2,7.154-4.263,13.864-6.327,20.573
		c0.308,0.11,0.616,0.221,0.923,0.331c3.8-5.225,3.619-12.513,8.331-17.326c0.338,0.826,0.415,1.561,0.164,2.158
		c-1.624,3.858-3.614,7.589-4.904,11.551c-1.185,3.639-1.746,7.498-2.381,11.294c-0.45,2.692-2.049,3.564-4.508,3.541
		c0.569-1.263,1.137-2.527,1.706-3.79c-1.362,0.021-3.133,0.612-3.461,1.656C354.708,517.611,354.722,520.128,354.437,522.551z
		 M412.025,437.468c23.484,15.913,46.835,31.736,70.279,47.623c2.62-4.17,5.112-8.137,7.751-12.338
		c-23.277-16.315-46.371-32.501-69.659-48.825C417.643,428.38,414.961,432.719,412.025,437.468z M402.572,425.441
		c-2.053,3.267-3.847,6.122-5.722,9.105c-3.993-6.003-8.741-6.483-12.954-1.097c-2.482,3.172-4.333,6.933-5.963,10.651
		c-1.66,3.787-0.224,7.207,3.2,9.264c1.024,0.615,2.043,1.238,3.204,1.943c-1.649,2.937-3.14,5.591-4.729,8.421
		c2.741,1.709,5.137,3.203,7.767,4.842c1.818-2.861,3.45-5.429,5.148-8.101c0.991,0.676,1.621,1.068,2.21,1.513
		c3.704,2.795,5.917,3.208,9.006,0.05c2.974-3.04,5.613-6.709,7.37-10.57c2.844-6.248,0.663-9.937-6.102-11.539
		c1.765-2.993,3.495-5.927,5.355-9.08C407.764,429.043,405.44,427.431,402.572,425.441z M360.271,644.738
		c3.294-5.163,6.417-10.059,9.393-14.725c-2.449-3.738-5.635-3.086-8.975-2.012c1.857-2.059,3.311-4.627,6.346-1.917
		c0.451,0.403,1.848-0.046,2.694-0.386c0.371-0.149,0.781-1.316,0.612-1.497c-0.622-0.667-1.431-1.463-2.256-1.574
		c-1.958-0.265-3.993,0.029-5.946-0.255c-4.738-0.688-8.918-0.279-11.465,4.532c-0.201,0.38-0.965,0.462-2.459,1.117
		c1.042-1.414,1.531-1.912,1.82-2.507c0.447-0.919,1.29-2.153,0.989-2.799c-0.366-0.787-1.718-1.493-2.689-1.557
		c-5.457-0.362-10.956-0.982-16.386-0.639c-7.612,0.481-15.176,1.729-23.635,2.755C326.07,630.61,343.16,637.669,360.271,644.738z
		 M299.399,618.472c24.619,0,48.983,0,73.374,0c-0.311-2.589-0.541-4.501-0.855-7.113c-22.594,0-45.261,0-67.928,0
		c-0.05-0.301-0.1-0.602-0.15-0.902c1.728-1.15,3.457-2.299,5.185-3.449c-0.201-0.325-0.402-0.65-0.602-0.975
		c-1.753,0.943-3.542,2.727-5.251,2.655c-3.607-0.154-3.884,1.674-3.784,4.326C299.448,614.62,299.399,616.231,299.399,618.472z
		 M179.475,486.71c0.324-0.054,0.648-0.108,0.972-0.162c0.792,2.079,1.639,4.139,2.359,6.242c0.77,2.247,1.991,3.126,4.49,2.402
		c3.701-1.073,7.543-1.659,11.245-2.729c4.441-1.285,8.798-2.861,13.192-4.311c0.05-0.417,0.1-0.833,0.15-1.25
		c-2.626-1.533-5.075-3.698-7.908-4.49c-13.115-3.668-25.771-0.933-38.711,3.048c0.987,3.611,1.661,6.754,2.768,9.737
		c0.356,0.96,1.87,2.133,2.829,2.111c3.436-0.078,6.861-0.625,10.42-1.009C180.631,492.851,180.053,489.78,179.475,486.71z
		 M397.48,623.434c-1.732,1.268-2.608,1.908-3.483,2.549c-0.471-1.201-1.547-2.608-1.229-3.54c0.27-0.792,2.205-1.559,3.302-1.435
		c5.017,0.567,9.992,1.502,14.999,2.179c1.067,0.144,2.205-0.237,3.117-0.352c-1.742-2.936-3.137-5.286-4.531-7.635
		c-0.631-1.063-2.106-1.284-3.489-1.768c-1.344-0.47-2.593-1.211-4.801-2.274c0.682,2.651,1.141,4.432,1.649,6.409
		c-1.084,0.342-1.994,0.771-2.944,0.901c-2.334,0.319-4.704,0.393-7.029,0.762c-3.485,0.553-6.884,1.242-9.902-1.546
		c-0.636-0.588-2.72-0.818-2.848-0.563c-1.726,3.428-4.996,4.784-8.073,6.43c-0.071,0.038,0.056,0.446,0.124,0.913
		c0.853-0.053,1.718-0.106,2.65-0.163c-1.695,10.352-1.063,13.836,3.298,15.753c-0.332-2.271-0.615-4.205-0.98-6.705
		c1.644,2.353,2.956,4.232,4.269,6.11c0.29-0.14,0.58-0.28,0.87-0.42c0-2.098,0-4.196,0-6.294c0.73,1.318,0.847,2.73,1.43,3.91
		c0.472,0.956,1.507,1.634,2.292,2.436c0.534-0.947,1.274-1.839,1.543-2.856c0.267-1.009,0.058-2.143,0.058-3.49
		c1.734,1.524,3.165,2.781,4.42,3.884C393.896,632.373,395.57,628.199,397.48,623.434z M415.465,475.176
		c2.322,1.476,4.507,2.865,6.812,4.33c4.235-6.896,8.314-13.539,12.561-20.454c-1.42-0.975-2.642-1.616-3.617-2.522
		c-2.484-2.309-4.656-2.184-6.998,0.283c-1.233,1.298-2.874,2.208-4.331,3.294c-0.136-0.189-0.272-0.379-0.408-0.568
		c1.525-2.505,3.05-5.01,4.697-7.715c-2.464-1.611-4.508-2.947-6.829-4.464c-4.361,7.088-8.518,13.844-12.822,20.838
		c2.488,1.589,5.076,3.242,7.365,4.703c2.945-2.378,5.545-4.477,8.145-6.576c0.2,0.209,0.401,0.418,0.601,0.627
		C418.998,469.561,417.355,472.172,415.465,475.176z M455.353,489.823c0.216,0.235,0.431,0.469,0.647,0.704
		c-1.542,2.402-3.083,4.804-4.751,7.402c2.015,1.287,4.086,2.61,6.24,3.986c4.137-6.596,8.13-12.962,12.166-19.398
		c-1.072-0.791-1.833-1.232-2.447-1.826c-2.712-2.625-5.232-2.838-7.841,0.23c-0.937,1.101-2.319,1.824-3.498,2.719
		c-0.166-0.211-0.332-0.423-0.499-0.634c1.423-2.306,2.846-4.612,4.442-7.197c-2.12-1.414-4.033-2.69-6.174-4.118
		c-4.265,6.783-8.334,13.252-12.49,19.861c2.447,1.541,4.729,2.979,6.79,4.277C450.622,493.655,452.988,491.739,455.353,489.823z
		 M466.607,507.67c1.622-2.579,3.098-4.926,4.574-7.273c0.247,0.11,0.495,0.221,0.742,0.331c-0.468,3.129-0.936,6.259-1.424,9.519
		c2.317,1.445,4.603,2.871,7.693,4.798c-1.159-9.64,1.871-16.273,10.901-18.813c-4.942-7.08-9.654-4.124-14.593-0.891
		c1.336-2.275,2.672-4.55,4.102-6.985c-2.229-1.479-4.156-2.758-6.281-4.168c-4.199,6.641-8.169,12.919-12.266,19.398
		C462.319,504.998,464.508,506.362,466.607,507.67z M493.297,524.702c2.337-3.636,4.488-6.987,6.643-10.336
		c4.2-6.527,2.85-11.38-4.125-14.824c-4.437-2.191-5.11-1.898-6.716,2.921c6.532,2.423,7.12,3.083,5.459,6.168
		c-1.653-0.846-3.239-1.887-4.975-2.499c-3.53-1.244-6.812,0.613-8.612,4.637c-1.707,3.817-1.071,5.605,2.631,7.848
		C486.76,520.531,489.861,522.54,493.297,524.702z M443.556,478.14c6.45-2.984,7.209-8.087,2.118-12.394
		c-1.222-1.033-2.651-1.863-4.08-2.603c-4.778-2.475-5.323-2.227-7.416,2.955c1.904,0.861,3.919,1.542,5.64,2.673
		c0.631,0.415,0.562,1.895,0.812,2.889c-0.975,0.085-1.991,0.377-2.914,0.195c-0.892-0.176-1.688-0.84-2.748-1.409
		c-0.766,1.351-1.404,2.477-2.053,3.622c0.693,0.546,1.221,0.773,1.44,1.17c0.623,1.132,1.121,2.334,1.668,3.508
		c-1.53-0.124-3.265,0.157-4.534-0.485c-1.291-0.653-2.122-2.213-3.438-3.696c-1.249,2.274-2.292,4.172-3.471,6.319
		c2.809,1.841,5.421,3.311,7.751,5.14c3.023,2.372,5.998,2.034,8.893,0.163C444.094,484.334,444.746,481.522,443.556,478.14z
		 M376.345,670.814c0.47,0.472,1.145,1.381,2.025,1.996c3.671,2.564,7.645,2.068,10.776-0.429c2.31-1.842,3.644-4.945,5.258-7.581
		c0.23-0.376-0.24-1.702-0.678-1.885c-3.775-1.568-7.573-3.844-11.458-4.04c-1.776-0.09-4.028,3.849-5.542,6.286
		C375.993,666.341,376.464,668.269,376.345,670.814z M185.982,530.259c1.719,3.303,3.579,5.819,7.067,4.96
		c5.896-1.452,11.813-3.044,17.441-5.283c4.209-1.674,6.932-5.314,8.788-10.566C209.339,527.857,198.467,530.934,185.982,530.259z
		 M324.19,546.367c3.29-2.238,0.172-8.697,6.171-10.098c0.341-1.656,0.803-3.894,1.264-6.132c-0.188-0.044-0.377-0.088-0.565-0.132
		c-0.496,1.413-0.993,2.825-1.544,4.395c-4.106-3.842,1.131-6.599,0.483-10.752c-2.668,6.576-9.081,10.63-7.052,17.795
		c-1.81,0.374-3.066,0.633-4.916,1.015C320.628,544.107,322.313,545.176,324.19,546.367z M496.413,472.37c1.997,0,3.164,0,5.002,0
		c-3.958,6.217-7.633,11.992-11.416,17.935c0.55,0.308,1.465,0.82,2.253,1.262c4.671-7.364,9.186-14.481,13.701-21.599
		c-0.079-0.365-0.157-0.731-0.236-1.096c-2.505,0.338-5.034,0.567-7.498,1.095C497.626,470.094,497.246,471.215,496.413,472.37z
		 M142.504,368.386c0.151,3.698,1.319,6.623,4.364,7.601c1.783,0.573,4.406-0.105,6.098-1.132c0.995-0.604,1.312-3.04,1.135-4.559
		c-0.087-0.746-1.95-1.71-3.084-1.824C148.342,368.204,145.62,368.386,142.504,368.386z M515.058,476.577
		c-1.53-1.111-4.762-1.18-7.456,0.017c-0.628,0.279-0.962,1.218-1.769,2.31c1.99,0,3.135,0,4.681,0
		c-0.592,1.091-0.95,1.851-1.396,2.555c-2.802,4.422-5.675,8.8-8.384,13.278c-0.434,0.717-0.159,1.863-0.211,2.811
		c0.363-0.001,0.726-0.001,1.089-0.002C506.048,490.628,510.484,483.71,515.058,476.577z M416.307,625.659
		c-6.777,1.448-12.998,2.776-19.248,4.112c3.574,3.062,8.596-0.342,12.06,2.932c0.186,0.175,1.243-0.242,1.61-0.644
		C412.62,629.996,414.416,627.849,416.307,625.659z M363.105,599.843c-3.579-2.195-5.535,0.089-6.869,2.539
		c-0.438,0.805,0.771,3.622,1.537,3.756c2.195,0.386,5.074,1.885,6.562-1.346c0.509-1.105,0.559-2.421,0.908-4.059
		c-1.529,0.44-2.396,0.69-3.834,1.104C362.189,600.92,362.562,600.481,363.105,599.843z M310.534,566.038
		c-0.187,0.482-0.373,0.965-0.56,1.447c7.193,3.287,14.387,6.575,21.58,9.862c0.257-0.583,0.515-1.165,0.772-1.748
		C325.062,572.412,317.798,569.225,310.534,566.038z M416.825,273.386c5.357,6.139,10.113,4.112,14.938,1.126
		C427.125,274.162,422.488,273.813,416.825,273.386z M393.945,637.648c5.168,5.193,8.131,4.44,11.928-1.798
		C401.861,636.455,398.085,637.024,393.945,637.648z M334.438,528.244c-0.991,3.23-1.72,5.683-2.498,8.12
		c-0.762,2.386-1.574,4.756-2.545,7.677c-0.101-0.058,0.639,0.366,1.182,0.677c1.467-4.173,2.829-8.047,4.191-11.92
		c0.278,0.115,0.555,0.23,0.833,0.345C335.28,531.797,334.961,530.451,334.438,528.244z M434.44,270.181
		c-0.201,0.298-0.403,0.595-0.604,0.893c2.039,1.853,2.396,6.108,7.518,4.51C438.773,273.568,436.607,271.875,434.44,270.181z
		 M317.396,637.76c-0.124,0.351-0.247,0.703-0.371,1.054c4.377,1.724,8.754,3.448,13.131,5.172c0.12-0.314,0.239-0.627,0.359-0.941
		C326.141,641.283,321.768,639.521,317.396,637.76z M399.334,624.132c-0.17,0.657-0.341,1.315-0.511,1.972
		c1.995,0.324,3.991,0.647,5.986,0.971c0.105-0.486,0.211-0.972,0.316-1.458C403.195,625.123,401.265,624.628,399.334,624.132z
		 M352.03,652.788c0.162-0.301,0.324-0.601,0.487-0.902c-4.069-1.618-8.138-3.237-12.207-4.855c-0.125,0.309-0.25,0.619-0.375,0.928
		C343.966,649.569,347.998,651.179,352.03,652.788z M366.691,589.207c-0.796,4.174,1.059,4.213,4.603,3.358
		C369.259,591.08,367.975,590.143,366.691,589.207z M248.086,170.973c0.077,0.154,0.134,0.268,0.191,0.382
		c0.033-0.08,0.111-0.181,0.086-0.234C248.334,171.058,248.216,171.037,248.086,170.973z"/>
	<path d="M156.503,106.196c8.767-8.164,18.851-13.713,29.91-17.484c5.05-1.722,10.361-2.667,15.462-4.258
		c2.311-0.721,4.419-2.12,6.586-3.275c13.066-6.963,27.371-10.057,41.67-12.954c7.521-1.524,15.275-1.872,22.892-2.972
		c1.723-0.249,3.284-1.985,4.97-2.072c16.412-0.852,32.608,0.395,48.229,5.953c1.759,0.626,4.739,0.681,4.032,3.776
		c-0.685,2.998-1.917,5.281-6.017,5.118c-8.103-0.323-16.233,0.018-24.351,0.12c-0.938,0.012-1.873,0.243-3.922,0.525
		c7.116,4.91,13.396,9.242,19.987,13.79C263.845,110.205,211.434,120.342,156.503,106.196z"/>
	<path d="M429.338,353.407c-3.826-0.361-7.656-0.688-11.477-1.104c-1.143-0.125-2.26-0.498-3.388-0.758
		c0.185,1.563,0.125,3.204,0.597,4.676c2.875,8.975,1.986,17.617-1.739,26.06c-0.339,0.023-0.678,0.046-1.018,0.069
		c-0.065-1.125-0.368-2.297-0.157-3.368c1.73-8.755,1.262-17.229-1.876-25.716c-4.55-12.308-4.234-24.422,3.45-35.866
		c-0.882-0.079-1.359-0.111-1.832-0.178c-0.054-0.008-0.08-0.208-0.123-0.322c1.534-2.054,3.071-4.105,4.61-6.154
		c0.001,0.002,0.022-0.027,0.022-0.027c1.925-1.286,3.849-2.572,5.776-3.861c0.317-0.284,0.631-0.565,0.946-0.847
		c0,0-0.108,0.13-0.108,0.13c0.268-0.547,0.536-1.094,0.804-1.641c0,0,0.117,0.044,0.117,0.044
		c3.146-2.694,5.967-6.097,10.905-4.803c0.275,0.072,0.742-0.712,1.162-1.044c2.48-1.962,12.579-0.678,14.155,1.919
		c0.95,1.565,1.533,3.352,2.502,5.538c0.278-1.059,0.43-1.641,0.667-2.543c2.7,5.192,3.245,10.441,1.873,15.716
		c-1.207,4.639-1.889,9.094-0.995,13.935c0.545,2.953,0.307,6.348-0.605,9.219c-3.008,9.464-6.447,18.792-9.819,28.137
		c-0.48,1.331-1.505,2.465-2.278,3.69c-0.409-0.119-0.818-0.237-1.228-0.356c0.401-1.732,0.699-3.494,1.219-5.189
		c2.55-8.312,5.517-16.517,7.6-24.943c1.07-4.327,0.94-9.052,0.723-13.567c-0.2-4.16-0.866-8.389-2.029-12.382
		c-1.013-3.478-3.008-6.67-4.279-9.372c-3.337,3.06-5.881,6.313-9.202,8.195c-3.812,2.161-7.722,0.498-11.454-3.015
		c-1.838,2.565-3.529,4.924-5.545,7.736c3.611,1.864,6.38,3.293,9.149,4.722c0.022-0.158,0.045-0.316,0.067-0.474
		c1.939,1.989,3.877,3.978,5.816,5.966c0-0.001-0.196-0.078-0.196-0.078c0.17,0.084,0.302,0.208,0.401,0.373
		c0.004,0.001,0.022-0.103,0.022-0.103c9.341,12.147,8.669,25.362,3.862,38.854c-1.327,3.725-4.713,4.864-8.582,4.527
		c-2.713-0.236-5.476-0.269-6.528-3.311c3.661-0.449,7.651-0.02,10.508-1.617c1.849-1.033,2.247-4.978,2.926-7.71
		c0.772-3.106-1.792-7.275-5.249-9.154C429.452,353.409,429.395,353.408,429.338,353.407z"/>
	<path d="M250.879,302.293c9.162,0.447,17.366,3.311,23.857,9.995c1.105,1.138,2.182,3.602,1.662,4.671
		c-0.565,1.161-3.075,2.081-4.621,1.929c-5.309-0.522-10.594-1.425-15.84-2.431c-8.594-1.648-16.243,0.468-23.46,5.135
		c-4.6,2.975-9.246,5.961-14.164,8.34c-6.348,3.07-12.538,0.275-15.274-6.242c-1.003-2.389-1.093-3.837,2.156-4.386
		c9.22-1.559,17.595-5.341,25.354-10.503C236.715,304.7,243.42,302.332,250.879,302.293z"/>
	<path d="M604.384,402.36c-5.349,0.889-10.676,1.964-16.052,2.635c-27.817,3.471-55.758,4.53-83.761,3.746
		c-4.29-0.12-8.796-0.775-12.769-2.305c-9.256-3.564-12.022-12.512-5.458-19.824c6.778-7.552,14.927-13.876,22.491-20.719
		c0.864-0.781,1.829-1.45,3.197-2.525c-5.283,0.462-9.843,1.133-14.412,1.197c-6.626,0.093-9.833-3.264-10.14-9.82
		c-0.5-10.65,2.976-20.142,8.564-28.944c6.275-9.885,14.341-18.23,23.09-25.936c1.152-1.015,2.507-1.798,3.768-2.689
		c0.248,0.281,0.495,0.561,0.743,0.842c-2.971,3.069-5.938,6.143-8.915,9.208c-7.594,7.817-14.711,15.997-19.55,25.891
		c-3.233,6.61-4.929,13.544-4.647,20.963c0.206,5.418,2.083,7.871,7.515,7.329c7.663-0.765,15.242-2.377,22.853-3.65
		c0.732-0.122,1.452-0.619,2.151-0.569c0.876,0.062,1.724,0.509,2.584,0.79c-0.525,0.729-0.898,1.685-1.598,2.15
		c-6.228,4.14-12.787,7.837-18.701,12.377c-5.419,4.161-10.455,8.929-15.132,13.923c-7.226,7.715-4.576,15.676,5.789,18.248
		c2.168,0.538,4.441,0.971,6.659,0.941c18.482-0.247,36.981-0.218,55.438-1.071c14.574-0.674,29.095-2.483,43.642-3.76
		c0.798-0.07,1.618,0.122,2.428,0.191C604.235,401.439,604.31,401.9,604.384,402.36z"/>
	<path d="M271.069,395.47c0.154-0.609,0.308-1.218,0.462-1.826c0,0.001-0.141,0.122-0.141,0.122c2.759-2.67,5.195-5.838,8.357-7.884
		c4.095-2.649,8.754-4.435,13.197-6.537c8.097-3.832,16.476-6.688,25.741-7.102c-43.128,14.333-66.882,44.068-71.341,89.309
		c-1.6-9.594-2.467-18.973-0.82-28.383c0.403-2.301,1.244-4.524,1.886-6.783c0.001,0.001-0.017-0.04-0.017-0.04
		c0.287-0.324,0.574-0.648,0.86-0.972c0,0-0.118,0.108-0.118,0.108c0.232-0.366,0.465-0.731,0.695-1.095
		c0.054,0.02,0.11,0.038,0.166,0.056c-0.067-0.024-0.134-0.047-0.201-0.071c0.217-0.46,0.433-0.921,0.651-1.379
		c0.053,0.073,0.106,0.143,0.159,0.213c-0.007-0.113-0.014-0.226-0.02-0.339c-0.035,0.081-0.071,0.161-0.106,0.242
		c0.233-0.933,0.526-1.856,0.686-2.801c0.424-2.504,1.044-4.582,4.001-5.516c1.584-0.501,2.985-2.155,4.052-3.597
		c2.276-3.078,4.28-6.357,6.387-9.545c1.501-1.802,3.01-3.612,4.519-5.422C270.438,395.976,270.754,395.723,271.069,395.47z"/>
	<path d="M268.803,357.142c-1.104,0-2.208,0-3.27,0c-7.838,14.54-28.392,21.23-39.347,12.463
		c13.643,0.869,26.991,1.622,35.339-13.235c-3.381-0.425-6.103-0.767-8.801-1.106c-1.911,9.305-5.467,13.139-11.586,12.761
		c-5.86-0.362-9.104-4.132-9.711-12.405c-4.843,3.144-9.199,5.971-13.112,8.511c0.164-1.887,2.239-5.614,5.702-7.317
		c4.509-2.217,9.26-4.475,14.144-5.283c8.765-1.451,17.663-0.999,26.226,1.837c1.76,0.583,3.275,1.907,4.903,2.889
		C269.127,356.552,268.965,356.847,268.803,357.142z M235.309,355.871c-0.574,4.732,1.175,7.534,4.845,8.335
		c3.014,0.657,6.57-1.54,7.614-4.704c1-3.031,0.226-4.316-2.96-4.289C241.714,355.238,238.624,355.625,235.309,355.871z"/>
	<path d="M345.975,65.725c9.894,3.843,19.787,7.685,29.681,11.528c-0.065,0.492-0.131,0.984-0.196,1.477
		c-0.923,0-1.847,0.032-2.769-0.005c-6.583-0.262-13.165-0.658-19.75-0.745c-2.387-0.032-3.673-0.9-4.457-3.038
		c-1.015-2.77-2.17-5.488-3.264-8.229C345.471,66.382,345.723,66.054,345.975,65.725z"/>
	<path d="M130.082,373.179c13.635,14.925,26.284,12.358,38.592-1.219c0.049,7.206-9.369,13.622-19.698,14.291
		C140.536,386.799,131.101,380.774,130.082,373.179z"/>
	<path d="M474.052,330.7c5.823-11.141,11.645-22.282,17.516-33.514c1.48,5.051-10.851,30.776-16.274,34.173
		C474.88,331.139,474.466,330.919,474.052,330.7z"/>
	<path d="M279.052,359.968c6.035-7.74,26.047-14.662,33.663-11.461C300.848,350.46,289.486,353.872,279.052,359.968z"/>
	<path d="M510.493,426.646c-0.71,0.385-1.127,0.811-1.538,0.805c-7.199-0.104-14.398-0.218-21.592-0.475
		c-0.714-0.026-1.393-1.003-2.089-1.539c0.676-0.55,1.384-1.612,2.023-1.572c7.186,0.45,14.362,1.053,21.536,1.68
		C509.325,425.588,509.772,426.151,510.493,426.646z"/>
	<path d="M270.123,396.229c-1.509,1.81-3.018,3.62-4.519,5.422c-1.038,0.288-2.084,0.584-3.129,0.88
		c0.366-0.941,0.462-2.278,1.15-2.749c2.008-1.376,4.253-2.407,6.404-3.573C270.027,396.208,270.123,396.229,270.123,396.229z"/>
	<path d="M173.764,445.542l-0.223-0.002c0,0-0.179,0.015-0.177,0.015c-2.651,0-5.304,0-7.956,0
		C168.522,442.854,172.27,443.199,173.764,445.542z"/>
	<path d="M270.123,396.229c0,0-0.096-0.021-0.095-0.02c0.35-0.249,0.699-0.5,1.044-0.744
		C270.754,395.723,270.438,395.976,270.123,396.229z"/>
	<polygon points="432.148,331.551 432.344,331.629 432.279,331.424 	"/>
	<path style="fill:#FFFFFF;" d="M249.795,424.373c0.067,0.024,0.134,0.047,0.201,0.071c-0.056-0.018-0.112-0.036-0.166-0.056
		C249.832,424.386,249.795,424.373,249.795,424.373z"/>
	<path style="fill:#FFFFFF;" d="M250.478,423.111c0.035-0.081,0.071-0.161,0.106-0.242c0.007,0.113,0.014,0.226,0.02,0.339
		c-0.053-0.07-0.105-0.141-0.159-0.213C250.445,422.992,250.478,423.111,250.478,423.111z"/>
	<path d="M271.39,393.766c0,0,0.141-0.121,0.141-0.122C271.531,393.644,271.39,393.766,271.39,393.766z"/>
	<path style="fill:#FFFFFF;" d="M429.338,353.407c0.057,0.001,0.114,0.002,0.17,0.003
		C429.508,353.411,429.338,353.407,429.338,353.407z"/>
	<path d="M432.571,331.821c0,0-0.019,0.104-0.022,0.103c0.094-0.001,0.192,0,0.29,0C432.75,331.889,432.661,331.855,432.571,331.821
		z"/>
	<path style="fill:#FFFFFF;" d="M248.393,426.347c0,0,0.019,0.04,0.017,0.04C248.409,426.386,248.393,426.347,248.393,426.347z"/>
	<path style="fill:#FFFFFF;" d="M249.135,425.483c0,0,0.118-0.108,0.118-0.108C249.254,425.375,249.135,425.483,249.135,425.483z"/>
	<path style="fill:#FFFFFF;" d="M416.407,310.718c0,0-0.021,0.029-0.022,0.027C416.384,310.744,416.407,310.718,416.407,310.718z"/>
	<path d="M422.283,306.961c0.259-0.516,0.517-1.031,0.776-1.547l-0.045-0.109c0.002,0.278,0.004,0.557,0.006,0.835
		c0,0,0.108-0.13,0.108-0.13C422.847,306.328,422.565,306.645,422.283,306.961z"/>
	<path style="fill:#FFFFFF;" d="M422.283,306.961c0.282-0.317,0.564-0.634,0.846-0.95c-0.315,0.282-0.629,0.563-0.946,0.847
		C422.181,306.86,422.283,306.961,422.283,306.961z"/>
	<path d="M423.059,305.415c0.294-0.29,0.588-0.58,0.883-0.871c0-0.001-0.117-0.045-0.117-0.045c-0.27,0.269-0.54,0.537-0.81,0.806
		C423.015,305.305,423.059,305.415,423.059,305.415z"/>
	<path style="fill:#FFFFFF;" d="M391.634,556.75c-0.819,0.318-1.638,0.636-2.813,1.092c-0.518-0.608-1.294-1.519-1.695-1.99
		c-1.641,0.219-2.92,0.268-4.122,0.596c-0.746,0.203-1.532,0.698-2.032,1.29c-2.282,2.699-5.206,2.996-8.082,1.686
		c-2.659-1.211-3.433-3.486-3.315-6.698c0.132-3.588-1.256-7.213-1.765-10.852c-0.212-1.516-0.158-3.203,0.296-4.648
		c0.923-2.934,2.201-5.756,3.333-8.624c-0.352-0.191-0.703-0.383-1.055-0.574c-0.919,1.833-2.133,3.582-2.681,5.52
		c-0.681,2.405-2.428,2.629-4.214,2.456c-0.892-0.087-2.493-1.549-2.388-1.793c0.605-1.406,1.698-2.59,2.489-3.93
		c1.878-3.179,5.834-4.422,6.986-8.517c0.984-3.496,3.371-6.593,5.089-9.891c0.543-1.043,0.93-2.168,1.389-3.256
		c-0.278-0.153-0.556-0.307-0.834-0.46c-1.743,2.571-3.677,5.037-5.177,7.743c-1.507,2.719-2.583,5.678-4.218,9.367
		c-0.371-1.399-0.625-1.799-0.518-2.04c1.277-2.895,2.433-5.584,2.477-9.065c0.04-3.182,2.449-6.348,3.87-9.496
		c2.658-5.889,5.383-11.748,7.997-17.656c0.29-0.656,0.039-1.552,0.039-3.006c-8.138,9.35-9.734,21.142-15.745,31.864
		c0-2.12,0-3.213,0-4.307c-0.315-0.101-0.63-0.203-0.945-0.304c-1.41,3.901-2.821,7.802-4.185,11.575
		c-0.863-1.874-1.698-3.687-2.538-5.494c-0.005,0.006-0.087,0.109-0.087,0.109c2.449,0.036,4.048-0.836,4.498-3.528
		c0.634-3.796,1.196-7.655,2.381-11.294c1.29-3.962,3.28-7.693,4.904-11.551c0.251-0.597,0.174-1.332-0.164-2.158
		c-4.712,4.813-4.531,12.101-8.331,17.326c-0.308-0.11-0.616-0.22-0.923-0.331c2.063-6.709,4.127-13.419,6.327-20.573
		c-5.405,0.708-8.282,7.08-10.307,16.148c-0.22-0.815-0.632-1.633-0.619-2.445c0.022-1.358,0.299-2.714,0.497-4.067
		c0.167-1.139,0.373-2.273,0.562-3.409c-0.409-0.12-0.817-0.241-1.226-0.361c-1.497,4.279-2.994,8.557-4.735,13.535
		c-2.532-3.439-0.196-6.687-0.888-10.013c-5.476,9.045-10.951,18.091-16.426,27.136c-0.337-0.207-0.675-0.414-1.012-0.621
		c9.976-16.641,19.952-33.283,29.956-49.972c22.337,13.493,44.646,26.496,66.364,40.423c5.325,3.415,8.384,10.006,8.77,17.002
		c0.082,1.485-0.054,3.094,0.469,4.425c2.492,6.336,5.395,12.516,7.717,18.91c1.551,4.27,3.03,8.756,3.357,13.232
		c0.423,5.8-0.367,11.684-0.565,17.534c-0.091,2.694-0.016,5.393-0.016,8.857c1.516-1.054,2.259-1.57,3.002-2.086
		c0.207,0.131,0.413,0.262,0.62,0.393c-6.158,9.412-12.317,18.824-18.475,28.236c0,0,0.092,0.103,0.092,0.103
		c-0.276-2.399,0.877-5.099-2.546-6.695c-0.828-0.386-0.51-4.1-0.066-6.141c0.695-3.193-0.306-5.2-3.006-6.819
		c-4.078-2.445-7.97-6.146-13.033-4.938c-9.852,2.35-16.684,8.33-19.268,18.495c-0.276,1.086-0.573,2.167-0.899,3.238
		c-0.066,0.215-0.309,0.376-0.621,0.736c-4.749-2.146-9.472-4.28-14.822-6.697c2.75-1.383,4.538-2.282,6.586-3.311
		c-1.504-1.98-2.663-3.507-4.099-5.397c1.557-0.283,2.668-0.485,3.95-0.718c-0.69-4.753,0.155-8.816,4.888-11.059
		c3.43-1.625,5.003-1.489,8.236,1.325c-5.901-0.41-9.368,1.8-9.744,8.011c3.413-2.009,7.048-3.727,10.173-6.112
		c2.877-2.195,5.206-5.108,7.776-7.704c-0.189-0.394-0.377-0.788-0.566-1.182c-2.056,0.307-4.113,0.611-6.169,0.921
		c-2.16,0.326-4.319,0.659-6.727,0.225c1.268-0.484,2.59-0.866,3.776-1.502c0.465-0.25,0.625-1.068,0.924-1.628
		c-0.534-0.18-1.089-0.559-1.599-0.506c-2.011,0.209-4.009,0.554-5.993,0.841c2.746-1.117,5.474-2.227,8.201-3.337
		c-0.079-0.292-0.157-0.584-0.236-0.876c-4.416,0.707-8.833,1.413-14.252,2.28c2.758,0.835,4.558,1.38,6.358,1.925
		c-2.268,1.814-4.333,4.035-6.874,5.297c-1.687,0.838-4.45,1.046-6.027,0.209c-2.409-1.279-4.112-3.726-1.246-6.637
		c-3.051-0.565-5.751-0.8-8.265-1.608c-2.358-0.758-4.52-2.124-6.768-3.223c0.042-0.405,0.085-0.81,0.127-1.216
		c2.296,0.201,4.592,0.402,6.987,0.612c-0.328-0.493-0.816-1.225-1.537-2.308c1.044-0.203,1.693-0.383,2.354-0.45
		c3.657-0.372,7.329-1.082,10.973-0.964c3.541,0.114,7.054,1.088,10.578,1.683c-0.762-0.001-1.523-0.001-2.284-0.001
		c0.007,0.332,0.015,0.664,0.022,0.995c3.022,0,6.044,0,9.066,0c-0.007-0.334-0.015-0.669-0.022-1.003c-2.325,0-4.651,0-6.976,0
		c0.007-1.072,0.014-2.144,0.021-3.216c0,0-0.082,0.06-0.082,0.06c0.722,0,1.444,0,2.25,0c0.295-3.01-1.408-3.96-3.882-4.413
		c-1.129-0.207-2.661-0.586-3.128-1.396c-0.52-0.902-0.036-2.383,0.011-3.612c0.82,0.54,1.898,0.904,2.413,1.654
		c1.618,2.353,5.068,3.558,7.874,2.544c0.769-0.278,1.574-0.455,3.121-0.048c-0.93,1.665-1.86,3.331-2.935,5.255
		c3.15-1.247,7.102-1.252,6.215-6.271c-4.035,0.239-7.693-0.553-9.266-5.252c-0.22-0.657-0.933-1.149-1.419-1.719
		c1.286,0.421,2.573,0.845,3.859,1.268c-0.049,0.272-0.097,0.543-0.146,0.815c1.237-0.448,2.474-0.896,3.176-1.15
		c-1.432-1.661-2.862-3.32-4.871-5.65C392.911,553.555,392.272,555.152,391.634,556.75z M394.273,497.273
		c-0.245,1.643-0.41,2.749-0.575,3.854c0.393,0.287,0.785,0.574,1.178,0.861c1.048-1.795,2.096-3.589,3.158-5.408
		c1.781,1.777,2.711,2.953,3.892,3.76c0.457,0.312,1.484-0.212,2.251-0.355c-0.234-0.62-0.283-1.53-0.73-1.815
		c-3.832-2.435-7.737-4.757-11.963-7.322c-2.229,5.073-4.214,9.591-6.436,14.647C389.619,504.534,390.142,499.033,394.273,497.273z
		 M403.778,542.787c-1.205-2.773-1.62-5.888-3.396-7.364c-3.635-3.019-7.135-0.809-10.257,2.287c0.131,0.809,0.32,1.971,0.396,2.439
		c2.477,0.457,4.463,0.823,6.449,1.189c-0.065,0.318-0.13,0.635-0.195,0.952c-1.282-0.334-2.564-0.669-4.741-1.237
		c1.225,1.587,1.984,3.32,2.632,3.28C397.408,544.164,400.116,543.466,403.778,542.787z M410.908,548.778
		c0.487,1.167,0.92,2.208,1.68,4.029c1.686-1.805,4.049-3.223,3.995-4.542c-0.077-1.876-1.53-4.354-3.145-5.314
		c-1.446-0.859-3.95-0.22-5.894,0.196c-0.665,0.142-1.508,1.631-1.472,2.47c0.126,2.944,0.599,5.873,0.948,8.87
		C411.219,554.694,409.399,550.768,410.908,548.778z M411.356,573.544c0.014,0.432,0.028,0.864,0.041,1.295
		c1.168,0.408,2.947,1.488,3.385,1.091c1.104-1.001,1.603-2.669,2.344-4.069c-0.343-0.317-0.687-0.635-1.03-0.952
		C414.516,571.788,412.936,572.666,411.356,573.544z"/>
	<path style="fill:#FFFFFF;" d="M412.025,437.468c2.936-4.748,5.618-9.087,8.37-13.539c23.289,16.323,46.382,32.509,69.659,48.825
		c-2.639,4.2-5.131,8.167-7.751,12.338C458.86,469.204,435.509,453.381,412.025,437.468z M422.431,438.327
		c7.654,4.816,14.908,9.086,21.84,13.826c6.751,4.616,13.172,9.715,20.403,15.097c0.889-2.412,1.662-3.927,1.92-5.525
		c0.091-0.566-0.949-1.594-1.694-1.951c-1.174-0.564-2.736-0.436-3.784-1.13c-8.119-5.374-16.145-10.888-24.223-16.325
		c-1.237-0.833-3.265-1.186-3.764-2.287c-1.364-3.015-3.058-2.804-5.625-1.607c0.783-0.958,1.565-1.917,2.489-3.047
		c-1.291-0.902-2.468-1.724-3.984-2.783C424.861,434.435,423.847,436.058,422.431,438.327z M465.598,468.071
		c1.947,0.406,3.348,0.698,4.707,0.981c-0.29,0.443-0.983,1.5-2.025,3.09c1.64,0,2.748,0,3.555,0c0.19,1.011,0.311,1.65,0.252,1.339
		c2.647,0.986,4.555,1.697,6.424,2.393c0.628-1.171,1.289-2.403,2.023-3.771c-4.036-2.74-8.073-5.481-12.332-8.372
		C467.28,465.267,466.664,466.295,465.598,468.071z"/>
	<path style="fill:#FFFFFF;" d="M402.572,425.441c2.868,1.989,5.193,3.601,7.789,5.402c-1.859,3.153-3.59,6.087-5.355,9.08
		c6.765,1.602,8.946,5.291,6.102,11.539c-1.758,3.861-4.396,7.529-7.37,10.57c-3.089,3.158-5.302,2.746-9.006-0.05
		c-0.59-0.445-1.219-0.837-2.21-1.513c-1.698,2.672-3.33,5.24-5.148,8.101c-2.63-1.64-5.025-3.133-7.767-4.842
		c1.589-2.83,3.079-5.484,4.729-8.421c-1.161-0.704-2.18-1.328-3.204-1.943c-3.424-2.057-4.86-5.477-3.2-9.264
		c1.629-3.718,3.481-7.478,5.963-10.651c4.213-5.386,8.962-4.906,12.954,1.097C398.724,431.563,400.519,428.708,402.572,425.441z
		 M403.686,447.463c-0.718-0.978-1.046-1.868-1.526-1.959c-0.546-0.104-1.469,0.339-1.809,0.833
		c-1.328,1.931-2.579,3.93-3.657,6.008c-0.293,0.565-0.052,1.596,0.298,2.212c0.136,0.239,1.589,0.179,1.865-0.184
		C400.547,452.159,402.07,449.817,403.686,447.463z M387.692,448.971c0.898-0.34,1.393-0.367,1.546-0.61
		c1.529-2.42,3.047-4.851,4.439-7.351c0.197-0.355-0.158-1.436-0.504-1.578c-0.556-0.228-1.684-0.206-1.933,0.153
		c-1.542,2.225-3.005,4.522-4.252,6.921C386.712,447.036,387.411,448.072,387.692,448.971z"/>
	<path style="fill:#FFFFFF;" d="M360.271,644.738c-17.111-7.068-34.201-14.128-51.958-21.463c8.459-1.026,16.023-2.274,23.635-2.755
		c5.43-0.343,10.929,0.276,16.386,0.639c0.97,0.064,2.322,0.771,2.689,1.557c0.301,0.646-0.542,1.88-0.989,2.799
		c-0.289,0.595-0.778,1.093-1.82,2.507c1.494-0.656,2.258-0.738,2.459-1.117c2.547-4.811,6.727-5.22,11.465-4.532
		c1.953,0.284,3.989-0.01,5.946,0.255c0.825,0.112,1.634,0.908,2.256,1.574c0.169,0.181-0.241,1.348-0.612,1.497
		c-0.845,0.339-2.242,0.789-2.694,0.386c-3.035-2.711-4.49-0.142-6.346,1.917c3.34-1.074,6.526-1.726,8.975,2.012
		C366.688,634.679,363.565,639.574,360.271,644.738z"/>
	<path style="fill:#FFFFFF;" d="M432.926,618.194c-9.396,14.887-18.793,29.774-28.298,44.834c-5.102-2.1-9.901-4.076-14.689-6.046
		c1.428-4.642,4.772-5.589,11.575-3.745c1.262,0.342,2.789-0.295,4.854-0.567c-2.546-3.303-4.646-4.074-7.558-3.013
		c-3.254,1.186-6.602,2.197-9.99,2.894c-1.294,0.266-2.968-0.268-4.18-0.951c-1.113-0.627-1.837-1.945-2.889-3.136
		c1.596-3.444,3.311-6.868,7.844-7.244c1.839-0.153,3.707,0.034,5.562,0.066c-0.006,0.435-0.012,0.87-0.018,1.306
		c-1.247,0.224-2.495,0.447-3.742,0.671c0.032,0.466,0.064,0.932,0.096,1.398c5.356-0.348,10.712-0.695,16.25-1.055
		c1.028-9.993,8.04-15.789,16.409-20.824c0.756,0.557,1.81,1.333,2.864,2.11c0.298-0.124,0.595-0.247,0.893-0.371
		c-0.38-1.458-0.761-2.916-1.247-4.782c1.066,0.062,2.073,0.12,3.15,0.182c-0.148-0.775-0.315-1.652-0.582-3.049
		c1.557,0.583,2.667,1,3.782,1.421C433.018,618.297,432.926,618.194,432.926,618.194z"/>
	<path style="fill:#FFFFFF;" d="M299.399,618.472c0-2.24,0.049-3.852-0.011-5.459c-0.1-2.652,0.178-4.48,3.784-4.326
		c1.71,0.073,3.498-1.712,5.251-2.655c0.201,0.325,0.402,0.65,0.602,0.975c-1.728,1.15-3.457,2.299-5.185,3.449
		c0.05,0.301,0.1,0.602,0.15,0.902c22.667,0,45.334,0,67.928,0c0.314,2.612,0.544,4.524,0.855,7.113
		C348.382,618.472,324.018,618.472,299.399,618.472z"/>
	<path style="fill:#FFFFFF;" d="M179.475,486.71c0.578,3.071,1.156,6.141,1.806,9.59c-3.559,0.384-6.984,0.932-10.42,1.009
		c-0.959,0.022-2.473-1.151-2.829-2.111c-1.107-2.983-1.781-6.127-2.768-9.737c12.94-3.982,25.596-6.716,38.711-3.048
		c2.833,0.792,5.282,2.958,7.908,4.49c-0.05,0.417-0.1,0.833-0.15,1.25c-4.393,1.45-8.75,3.026-13.192,4.311
		c-3.702,1.071-7.544,1.657-11.245,2.729c-2.499,0.724-3.72-0.155-4.49-2.402c-0.72-2.103-1.568-4.163-2.359-6.242
		C180.123,486.602,179.799,486.656,179.475,486.71z"/>
	<path style="fill:#FFFFFF;" d="M397.48,623.434c-1.911,4.765-3.584,8.939-5.291,13.196c-1.255-1.103-2.686-2.36-4.42-3.884
		c0,1.347,0.208,2.481-0.058,3.49c-0.269,1.017-1.009,1.909-1.543,2.856c-0.785-0.802-1.819-1.48-2.292-2.436
		c-0.583-1.181-0.7-2.592-1.43-3.91c0,2.098,0,4.196,0,6.294c-0.29,0.14-0.58,0.28-0.87,0.42c-1.312-1.879-2.625-3.757-4.269-6.11
		c0.366,2.501,0.648,4.434,0.98,6.705c-4.36-1.917-4.993-5.401-3.298-15.753c-0.932,0.057-1.796,0.111-2.65,0.163
		c-0.068-0.467-0.195-0.875-0.124-0.913c3.077-1.647,6.346-3.003,8.073-6.43c0.128-0.254,2.212-0.024,2.848,0.563
		c3.018,2.787,6.417,2.099,9.902,1.546c2.325-0.369,4.695-0.443,7.029-0.762c0.951-0.13,1.86-0.559,2.944-0.901
		c-0.509-1.977-0.967-3.757-1.649-6.409c2.208,1.063,3.457,1.804,4.801,2.274c1.383,0.484,2.859,0.705,3.489,1.768
		c1.394,2.35,2.789,4.699,4.531,7.635c-0.912,0.115-2.05,0.497-3.117,0.352c-5.007-0.677-9.981-1.613-14.999-2.179
		c-1.097-0.124-3.031,0.642-3.302,1.435c-0.318,0.932,0.758,2.339,1.229,3.54C394.872,625.343,395.748,624.702,397.48,623.434z"/>
	<path style="fill:#FFFFFF;" d="M415.465,475.176c1.89-3.004,3.533-5.615,5.176-8.226c-0.2-0.209-0.401-0.418-0.601-0.627
		c-2.6,2.099-5.2,4.198-8.145,6.576c-2.288-1.461-4.876-3.114-7.365-4.703c4.304-6.994,8.46-13.75,12.822-20.838
		c2.321,1.517,4.365,2.853,6.829,4.464c-1.647,2.706-3.172,5.21-4.697,7.715c0.136,0.189,0.272,0.379,0.408,0.568
		c1.457-1.085,3.099-1.995,4.331-3.294c2.342-2.467,4.514-2.592,6.998-0.283c0.975,0.906,2.196,1.547,3.617,2.522
		c-4.247,6.916-8.326,13.558-12.561,20.454C419.972,478.041,417.787,476.652,415.465,475.176z"/>
	<path style="fill:#FFFFFF;" d="M455.353,489.823c-2.365,1.916-4.731,3.832-7.414,6.006c-2.061-1.298-4.343-2.736-6.79-4.277
		c4.156-6.609,8.225-13.079,12.49-19.861c2.141,1.428,4.054,2.704,6.174,4.118c-1.596,2.585-3.019,4.891-4.442,7.197
		c0.166,0.211,0.332,0.423,0.499,0.634c1.179-0.895,2.561-1.618,3.498-2.719c2.609-3.067,5.129-2.855,7.841-0.23
		c0.614,0.594,1.375,1.035,2.447,1.826c-4.037,6.436-8.03,12.802-12.166,19.398c-2.153-1.375-4.225-2.699-6.24-3.986
		c1.668-2.598,3.209-5,4.751-7.402C455.784,490.292,455.569,490.058,455.353,489.823z"/>
	<path style="fill:#FFFFFF;" d="M466.607,507.67c-2.099-1.308-4.288-2.672-6.55-4.082c4.097-6.48,8.067-12.757,12.266-19.398
		c2.125,1.41,4.052,2.689,6.281,4.168c-1.43,2.435-2.766,4.71-4.102,6.985c4.939-3.233,9.651-6.189,14.593,0.891
		c-9.03,2.539-12.061,9.173-10.901,18.813c-3.09-1.928-5.377-3.354-7.693-4.798c0.488-3.261,0.956-6.39,1.424-9.519
		c-0.247-0.111-0.495-0.221-0.742-0.331C469.705,502.744,468.229,505.09,466.607,507.67z"/>
	<path style="fill:#FFFFFF;" d="M493.297,524.702c-3.436-2.162-6.537-4.171-9.696-6.085c-3.703-2.243-4.338-4.031-2.631-7.848
		c1.8-4.025,5.082-5.881,8.612-4.637c1.737,0.612,3.322,1.653,4.975,2.499c1.661-3.085,1.073-3.745-5.459-6.168
		c1.606-4.82,2.279-5.112,6.716-2.921c6.975,3.444,8.325,8.297,4.125,14.824C497.785,517.715,495.633,521.066,493.297,524.702z"/>
	<path style="fill:#FFFFFF;" d="M443.556,478.14c1.191,3.381,0.538,6.194-2.331,8.048c-2.896,1.871-5.87,2.209-8.893-0.163
		c-2.331-1.829-4.943-3.299-7.751-5.14c1.179-2.147,2.222-4.046,3.471-6.319c1.316,1.483,2.148,3.044,3.438,3.696
		c1.269,0.641,3.004,0.361,4.534,0.485c-0.547-1.174-1.045-2.376-1.668-3.508c-0.218-0.397-0.746-0.624-1.44-1.17
		c0.649-1.145,1.287-2.271,2.053-3.622c1.06,0.569,1.855,1.233,2.748,1.409c0.923,0.182,1.938-0.11,2.914-0.195
		c-0.25-0.994-0.181-2.474-0.812-2.889c-1.72-1.131-3.736-1.811-5.64-2.673c2.093-5.182,2.638-5.431,7.416-2.955
		c1.429,0.74,2.858,1.569,4.08,2.603C450.765,470.053,450.006,475.156,443.556,478.14z"/>
	<path style="fill:#FFFFFF;" d="M376.345,670.814c0.119-2.545-0.353-4.473,0.38-5.653c1.514-2.436,3.766-6.375,5.542-6.286
		c3.886,0.196,7.684,2.472,11.458,4.04c0.439,0.182,0.909,1.509,0.678,1.885c-1.614,2.636-2.948,5.738-5.258,7.581
		c-3.131,2.497-7.106,2.992-10.776,0.429C377.49,672.195,376.815,671.286,376.345,670.814z"/>
	<path style="fill:#FFFFFF;" d="M185.982,530.259c12.485,0.675,23.357-2.402,33.295-10.889c-1.855,5.252-4.579,8.892-8.788,10.566
		c-5.628,2.238-11.545,3.831-17.441,5.283C189.561,536.078,187.701,533.562,185.982,530.259z"/>
	<path style="fill:#FFFFFF;" d="M324.19,546.367c-1.877-1.191-3.562-2.26-6.16-3.909c1.85-0.382,3.106-0.641,4.916-1.015
		c-2.028-7.166,4.384-11.219,7.052-17.795c0.648,4.152-4.59,6.909-0.483,10.752c0.551-1.569,1.048-2.982,1.544-4.395
		c0.188,0.044,0.377,0.088,0.565,0.132c-0.461,2.238-0.923,4.476-1.264,6.132C324.362,537.671,327.479,544.13,324.19,546.367z"/>
	<path style="fill:#FFFFFF;" d="M496.413,472.37c0.832-1.155,1.213-2.276,1.806-2.403c2.464-0.528,4.993-0.757,7.498-1.095
		c0.079,0.365,0.157,0.731,0.236,1.096c-4.515,7.117-9.03,14.235-13.701,21.599c-0.789-0.442-1.703-0.954-2.253-1.262
		c3.783-5.943,7.458-11.717,11.416-17.935C499.577,472.37,498.411,472.37,496.413,472.37z"/>
	<path style="fill:#FFFFFF;" d="M142.504,368.386c3.116,0,5.838-0.182,8.514,0.086c1.134,0.114,2.997,1.078,3.084,1.824
		c0.177,1.519-0.14,3.955-1.135,4.559c-1.692,1.027-4.315,1.704-6.098,1.132C143.823,375.009,142.655,372.084,142.504,368.386z"/>
	<path style="fill:#FFFFFF;" d="M515.058,476.577c-4.574,7.133-9.011,14.052-13.447,20.97c-0.363,0.001-0.726,0.001-1.089,0.002
		c0.053-0.948-0.222-2.094,0.211-2.811c2.709-4.478,5.583-8.856,8.384-13.278c0.446-0.704,0.804-1.465,1.396-2.555
		c-1.546,0-2.691,0-4.681,0c0.807-1.092,1.141-2.031,1.769-2.31C510.296,475.397,513.528,475.466,515.058,476.577z"/>
	<path style="fill:#FFFFFF;" d="M416.307,625.659c-1.891,2.19-3.688,4.337-5.578,6.4c-0.368,0.401-1.425,0.819-1.61,0.644
		c-3.464-3.274-8.487,0.13-12.06-2.932C403.31,628.435,409.53,627.107,416.307,625.659z"/>
	<path style="fill:#FFFFFF;" d="M363.105,599.843c-0.543,0.638-0.916,1.077-1.696,1.993c1.438-0.414,2.304-0.663,3.834-1.104
		c-0.349,1.638-0.399,2.954-0.908,4.059c-1.488,3.231-4.367,1.732-6.562,1.346c-0.766-0.135-1.975-2.951-1.537-3.756
		C357.57,599.932,359.525,597.648,363.105,599.843z"/>
	<path style="fill:#FFFFFF;" d="M310.534,566.038c7.264,3.187,14.528,6.374,21.793,9.562c-0.257,0.583-0.515,1.165-0.772,1.748
		c-7.193-3.287-14.387-6.575-21.58-9.862C310.16,567.002,310.347,566.52,310.534,566.038z"/>
	<path style="fill:#FFFFFF;" d="M416.825,273.386c5.663,0.427,10.301,0.776,14.938,1.126
		C426.938,277.498,422.182,279.525,416.825,273.386z"/>
	<path style="fill:#FFFFFF;" d="M354.414,522.493c-2.116,4.913-4.211,9.836-6.396,14.718c-0.153,0.342-1.128,0.663-1.458,0.49
		c-0.385-0.201-0.777-1.039-0.659-1.457c1.516-5.379,2.8-10.936,8.536-13.693L354.414,522.493z"/>
	<path style="fill:#FFFFFF;" d="M393.945,637.648c4.139-0.624,7.915-1.193,11.928-1.798
		C402.076,642.087,399.113,642.841,393.945,637.648z"/>
	<path style="fill:#FFFFFF;" d="M334.438,528.244c0.523,2.206,0.843,3.552,1.162,4.898c-0.278-0.115-0.555-0.23-0.833-0.345
		c-1.362,3.874-2.724,7.747-4.191,11.92c-0.542-0.31-1.283-0.735-1.182-0.677c0.971-2.92,1.783-5.29,2.545-7.677
		C332.718,533.928,333.446,531.475,334.438,528.244z"/>
	<path style="fill:#FFFFFF;" d="M354.437,522.551c0.285-2.423,0.271-4.939,0.989-7.226c0.328-1.044,2.099-1.635,3.461-1.656
		c-0.569,1.263-1.137,2.527-1.701,3.784c0.005-0.007,0.087-0.109,0.092-0.116c-0.959,1.704-1.922,3.414-2.875,5.14
		C354.414,522.493,354.437,522.551,354.437,522.551z"/>
	<path style="fill:#FFFFFF;" d="M434.44,270.181c2.167,1.693,4.334,3.387,6.914,5.403c-5.122,1.597-5.479-2.658-7.518-4.51
		C434.037,270.776,434.238,270.479,434.44,270.181z"/>
	<path style="fill:#FFFFFF;" d="M317.396,637.76c4.373,1.762,8.746,3.524,13.118,5.286c-0.12,0.314-0.239,0.627-0.359,0.941
		c-4.377-1.724-8.754-3.448-13.131-5.172C317.148,638.462,317.272,638.111,317.396,637.76z"/>
	<path style="fill:#FFFFFF;" d="M390.37,569.844c-2.439,0-4.877,0-8.012,0c0.938-2.411,1.388-4.112,4.08-2.145
		c1.185,0.866,2.55,1.488,3.841,2.213C390.287,569.904,390.37,569.844,390.37,569.844z"/>
	<path style="fill:#FFFFFF;" d="M399.334,624.132c1.93,0.495,3.861,0.99,5.791,1.486c-0.105,0.486-0.211,0.972-0.316,1.458
		c-1.995-0.324-3.991-0.647-5.986-0.971C398.994,625.447,399.164,624.79,399.334,624.132z"/>
	<path d="M390.348,573.06c2.325,0,4.651,0,6.976,0c0.007,0.334,0.015,0.669,0.022,1.003c-3.022,0-6.044,0-9.066,0
		c-0.007-0.332-0.015-0.664-0.022-0.995c0.761,0,1.522,0,2.284,0.001C390.542,573.07,390.348,573.06,390.348,573.06z"/>
	<path style="fill:#FFFFFF;" d="M352.03,652.788c-4.032-1.609-8.064-3.219-12.095-4.828c0.125-0.309,0.25-0.619,0.375-0.928
		c4.069,1.618,8.138,3.237,12.207,4.855C352.354,652.187,352.192,652.487,352.03,652.788z"/>
	<path style="fill:#FFFFFF;" d="M366.691,589.207c1.284,0.937,2.568,1.873,4.603,3.358
		C367.751,593.42,365.895,593.381,366.691,589.207z"/>
	<path style="fill:#FFFFFF;" d="M248.086,170.973c0.13,0.064,0.248,0.085,0.277,0.148c0.025,0.053-0.053,0.154-0.086,0.234
		C248.22,171.241,248.163,171.127,248.086,170.973z"/>
	<path style="fill:#FFFFFF;" d="M423.015,305.305c0.27-0.269,0.54-0.537,0.81-0.806c-0.268,0.547-0.536,1.094-0.804,1.641
		C423.019,305.862,423.017,305.584,423.015,305.305z"/>
	<path style="fill:#FFFFFF;" d="M235.309,355.871c3.315-0.245,6.406-0.632,9.499-0.659c3.186-0.027,3.96,1.258,2.96,4.289
		c-1.044,3.164-4.601,5.361-7.614,4.704C236.484,363.405,234.735,360.603,235.309,355.871z"/>
	<path d="M394.273,497.273c-4.13,1.76-4.654,7.261-9.224,8.222c2.222-5.057,4.207-9.574,6.436-14.647
		c4.226,2.564,8.131,4.886,11.963,7.322c0.447,0.284,0.496,1.195,0.73,1.815c-0.767,0.143-1.795,0.667-2.251,0.356
		c-1.182-0.807-2.112-1.983-3.892-3.76c-1.062,1.819-2.11,3.613-3.158,5.408c-0.393-0.287-0.785-0.574-1.178-0.861
		C393.863,500.022,394.028,498.916,394.273,497.273z"/>
	<path d="M403.778,542.787c-3.662,0.679-6.37,1.377-9.112,1.547c-0.649,0.04-1.407-1.692-2.632-3.28
		c2.177,0.568,3.459,0.902,4.741,1.237c0.065-0.317,0.13-0.635,0.195-0.952c-1.986-0.366-3.972-0.732-6.449-1.189
		c-0.076-0.468-0.265-1.63-0.396-2.439c3.122-3.097,6.622-5.306,10.257-2.287C402.158,536.899,402.573,540.014,403.778,542.787z"/>
	<path d="M410.908,548.778c-1.509,1.99,0.311,5.916-3.888,5.71c-0.349-2.997-0.822-5.926-0.948-8.87
		c-0.036-0.839,0.808-2.328,1.472-2.47c1.944-0.416,4.448-1.055,5.894-0.196c1.615,0.96,3.067,3.437,3.145,5.314
		c0.054,1.319-2.309,2.737-3.995,4.542C411.828,550.986,411.394,549.945,410.908,548.778z"/>
	<path d="M390.239,581.674c-1.8-0.545-3.6-1.09-6.358-1.925c5.419-0.867,9.835-1.574,14.252-2.28
		c0.079,0.292,0.157,0.584,0.236,0.876c-2.728,1.11-5.455,2.22-8.201,3.337C390.149,581.689,390.239,581.674,390.239,581.674z"/>
	<path d="M391.634,556.75c0.638-1.598,1.277-3.195,1.926-4.82c2.009,2.33,3.439,3.989,4.871,5.65
		c-0.702,0.254-1.939,0.702-3.176,1.15c0.049-0.272,0.097-0.543,0.146-0.815c-1.287-0.424-2.574-0.847-3.859-1.268
		C391.542,556.649,391.634,556.75,391.634,556.75z"/>
	<path d="M411.356,573.544c1.58-0.878,3.16-1.757,4.741-2.635c0.343,0.317,0.687,0.635,1.03,0.952
		c-0.741,1.4-1.24,3.068-2.344,4.069c-0.438,0.397-2.217-0.683-3.385-1.091C411.383,574.408,411.369,573.976,411.356,573.544z"/>
	<path d="M422.431,438.327c1.416-2.269,2.43-3.892,3.578-5.731c1.517,1.059,2.694,1.881,3.984,2.783
		c-0.923,1.13-1.706,2.089-2.489,3.047c2.567-1.197,4.261-1.408,5.625,1.607c0.499,1.102,2.527,1.455,3.764,2.287
		c8.078,5.436,16.104,10.95,24.223,16.325c1.048,0.694,2.61,0.566,3.784,1.13c0.744,0.358,1.785,1.385,1.694,1.951
		c-0.258,1.598-1.031,3.113-1.92,5.525c-7.231-5.382-13.652-10.481-20.403-15.097C437.339,447.413,430.085,443.143,422.431,438.327z
		"/>
	<path d="M465.598,468.071c1.065-1.776,1.682-2.804,2.603-4.34c4.259,2.892,8.296,5.632,12.332,8.372
		c-0.734,1.368-1.395,2.599-2.023,3.771c-1.869-0.696-3.777-1.407-6.424-2.393c0.059,0.311-0.062-0.328-0.252-1.339
		c-0.807,0-1.915,0-3.555,0c1.042-1.59,1.735-2.647,2.025-3.09C468.947,468.769,467.545,468.477,465.598,468.071z"/>
	<path d="M403.686,447.463c-1.616,2.354-3.139,4.695-4.828,6.91c-0.277,0.363-1.73,0.423-1.865,0.184
		c-0.35-0.616-0.591-1.647-0.298-2.212c1.078-2.078,2.329-4.077,3.657-6.008c0.34-0.494,1.263-0.937,1.809-0.833
		C402.64,445.596,402.968,446.486,403.686,447.463z"/>
	<path d="M387.692,448.971c-0.28-0.899-0.98-1.936-0.704-2.466c1.247-2.399,2.71-4.696,4.252-6.921
		c0.249-0.359,1.377-0.381,1.933-0.153c0.347,0.142,0.702,1.224,0.504,1.578c-1.392,2.5-2.91,4.931-4.439,7.351
		C389.084,448.604,388.589,448.632,387.692,448.971z"/>
</g>
<path style="fill:none;" d="M199.587,604.623c0,15.584,11.877,28.195,26.554,28.195"/>
<path style="fill:none;" d="M339.935,355.212c0,5.443,19.935,9.848,44.571,9.848"/>
<path style="fill:none;" d="M358.887,363.271c0,7.145-6.113,12.926-13.668,12.926"/>
<path style="fill:none;" d="M393.945,379.123c0,0-0.338,0-0.755,0"/>
<path style="fill:none;" d="M299.372,436c0,1.815,0,3.283,0,3.283"/>
<line x1="384.506" y1="365.06" x2="350.158" y2="350.725"/>
<line style="fill:none;" x1="226.141" y1="632.818" x2="219.277" y2="629.201"/>
<line x1="200.158" y1="599.435" x2="350.158" y2="350.725"/>
<path d="M383.785,364.052c-1.021-0.186-2.042-0.372-3.063-0.559c-1.063-0.822-2.29-1.272-3.562-1.378
	c-0.039-0.018-0.083-0.038-0.12-0.055c-1.568-0.696-3.182-0.968-4.884-0.686c-0.117,0.019-0.228,0.048-0.343,0.072
	c-1.501-0.419-2.994-0.866-4.471-1.381c-3.03-1.056-9.066-2.405-10.768-5.24c-2.604-4.337-9.134-2.389-9.317,2.524
	c-0.015,0.394-0.043,0.784-0.067,1.175c-0.877,0.373-1.639,1.065-2.133,2.152c-6.444,14.177-11.62,29.439-21.601,41.642
	c-0.646,0.79-1.007,1.636-1.144,2.479c-3.805,6.014-7.043,12.285-9.643,18.987c-1.954-0.661-4.148-0.148-5.288,2.319
	c-3.519,7.612-7.436,15.02-11.84,22.159c-4.472,7.249-9.665,14.025-14.078,21.308c-4.211,6.952-7.574,14.181-12.403,20.768
	c-5.276,7.197-10.654,14.321-15.982,21.479c-1.073,1.442-1.17,2.869-0.67,4.068h-1.805v7.492c-4.773,1.42-7.605,7.537-9.656,11.571
	c-1.428,2.809-2.717,5.701-4.415,8.364c-1.81,2.839-4.043,5.273-5.491,8.343c-0.904,1.916-0.56,3.752,0.399,5.143
	c-10.376,14.582-21.151,29.096-30.765,44.215c-4.336,0.237-5.545,5.168-3.612,8.012c0.16,0.877,0.574,1.692,1.139,2.383
	c-0.19,1.848,0.513,3.799,2.106,4.836c0.267,1.204,0.938,2.296,1.998,2.988c0.383,1.744,1.594,3.273,3.638,3.665
	c2.702,3.369,6.127,6.062,10.038,7.781c5.683,5.31,13.405,7.684,21.453,3.888c3.631-1.713,3.019-5.718,0.637-7.82
	c3.43-1.954,6.099-5.296,6.838-9.997c0.39-2.481-0.603-5.621-3.492-6.151c-0.343-0.063-0.683-0.108-1.024-0.161
	c-0.008-0.174-0.022-0.348-0.033-0.522c0.526-0.925,1.027-1.866,1.51-2.818c2.182,1.575,5.697,0.864,7.426-1.488
	c3.892-5.295,5.959-11.538,6.184-17.917c0.196-0.151,0.384-0.317,0.559-0.506c0.497-0.541,0.942-1.098,1.349-1.666
	c1.676,0.311,3.522-0.096,4.649-1.289c2.147-2.273,4-4.752,5.555-7.38c1.398-0.229,2.72-1.019,3.536-2.353
	c3.183-5.201,4.603-10.967,3.964-17.048c-0.165-1.572-0.781-2.787-1.701-3.626c0.022-0.204,0.034-0.411,0.051-0.616
	c0.003-0.003,0.006-0.004,0.009-0.007c2.029-1.888,3.437-4.031,4.316-6.421c0.235,0.03,0.477,0.051,0.732,0.051
	c4.469,0,5.836-4.821,4.097-7.768c0.063-0.045,0.121-0.094,0.185-0.138c1.974-1.369,3.888-2.048,4.773-4.451
	c0.955-2.596,1.165-5.299,2.429-7.853c5.004-10.116,14.105-18.266,20.924-27.163c14.227-18.564,25.605-38.998,34.299-60.69
	c4.178-6.787,7.555-14.026,10.036-21.611c1.446-2.373,2.677-5.058,3.515-7.742c2.323,0.205,4.793-1.012,5.305-3.553
	c0.154-0.765,0.274-1.534,0.384-2.303c2.5-1.405,3.03-4.951,1.587-7.264c1.673-1.822,2.92-4,4.163-6.287
	c2.65-4.873,5.287-9.754,7.931-14.631c0.15-0.276,0.266-0.554,0.358-0.833c0.049,0.013,0.094,0.032,0.144,0.044
	c2.778,0.638,5.401-0.144,7.362-2.182C388.408,369.899,387.634,364.754,383.785,364.052z"/>
<line style="stroke:#000000;stroke-miterlimit:10;" x1="378.603" y1="374.655" x2="365.948" y2="396.274"/>
<path style="stroke:#000000;stroke-miterlimit:10;" d="M278.615,548.781l-33.734-19.476c-1.261-0.728-2.873-0.296-3.601,0.965
	l-26.448,45.809c-0.728,1.261-0.296,2.873,0.965,3.601l33.734,19.476c1.261,0.728,2.873,0.296,3.601-0.965l26.448-45.809
	C280.307,551.12,279.875,549.508,278.615,548.781z"/>
<rect x="256" y="568.376" style="fill:none;stroke:#000000;stroke-miterlimit:10;" width="2.5" height="1.458"/>
<path style="stroke:#000000;stroke-miterlimit:10;" d="M263.475,572.947l-33.309-19.231c-1.261-0.728-2.873-0.296-3.601,0.965
	l-26.448,45.809c-0.728,1.261-0.296,2.873,0.965,3.601l33.309,19.231c1.261,0.728,2.873,0.296,3.601-0.965l26.448-45.809
	C265.168,575.287,264.736,573.675,263.475,572.947z"/>
<path style="stroke:#000000;stroke-miterlimit:10;" d="M334.86,453.677l-33.486-19.333c-1.261-0.728-2.873-0.296-3.601,0.965
	l-56.626,98.079c-0.728,1.261-0.296,2.873,0.965,3.601l33.486,19.333c1.261,0.728,2.873,0.296,3.601-0.965l56.626-98.079
	C336.552,456.017,336.12,454.405,334.86,453.677z"/>
<path style="stroke:#000000;stroke-miterlimit:10;" d="M334.86,453.677l-32.964-19.032c-1.261-0.728-2.873-0.296-3.601,0.965
	l-29.844,51.691c-0.728,1.261-0.296,2.873,0.965,3.601l32.964,19.032c1.261,0.728,2.873,0.296,3.601-0.965l29.844-51.691
	C336.552,456.017,336.12,454.405,334.86,453.677z"/>
<path style="stroke:#000000;stroke-miterlimit:10;" d="M360.902,410.827l-34.212-19.752c-1.261-0.728-2.873-0.296-3.601,0.965
	l-26.448,45.809c-0.728,1.261-0.296,2.873,0.965,3.601l34.212,19.752c1.261,0.728,2.873,0.296,3.601-0.965l26.448-45.809
	C362.595,413.166,362.163,411.554,360.902,410.827z"/>
<path style="stroke:#000000;stroke-miterlimit:10;" d="M375.725,361.596l-23.651-13.655c-1.261-0.728-2.873-0.296-3.601,0.965
	l-27.428,47.507c-0.728,1.261-0.296,2.873,0.965,3.601l23.651,13.655c1.261,0.728,2.873,0.296,3.601-0.965l27.428-47.507
	C377.418,363.936,376.986,362.324,375.725,361.596z"/>
<path d="M365.904,94.054c0.045-0.278,0.074-0.561,0.087-0.844c4.007-0.325,8.027-0.803,12.051-1.329
	c3.302-0.432,6.823-4.073,4.317-7.524c-3.406-4.69-7.804-7.473-13.281-9.282c-4.938-1.631-11.847-3.845-16.736-1.1
	c-1.226,0.689-2.216,1.686-2.961,2.847c-0.12-1.839-1.21-3.558-3.551-4.144c-3.333-0.833-6.667-1.667-10-2.5
	c-1.697-0.424-3.127-0.018-4.187,0.825c-0.688-0.335-1.45-0.537-2.158-0.506c-1.293,0.058-2.634,0.483-3.536,1.464
	c-0.114,0.125-0.199,0.257-0.298,0.385c-5.214-1.076-10.807-1.164-14.405,2.009c-1.281,1.13-2.04,2.348-2.392,3.581
	c-1.114-0.441-2.228-0.873-3.345-1.283c-0.622-0.425-1.238-0.864-1.839-1.331c-1.842-1.429-3.553-1.728-5.623-0.947
	c-6.071-1.558-12.267-2.527-18.524-3.056c-6.412-0.542-6.376,9.461,0,10c4.966,0.42,9.877,1.219,14.701,2.396
	c1.447,3.656,4.664,7.527,7.425,10.381c-0.582,0.707-1.042,1.488-1.377,2.314c-1.866-0.271-3.735-0.492-5.607-0.666
	c-6.587-5.412-18.358-2.92-26.551,0.6c-0.452-0.072-0.908-0.128-1.369-0.148c-7.469-0.333-15.973,0.806-23.557,3.686
	c-2.348-0.491-4.749-0.773-7.072-0.919c-2.997-0.188-6.136-0.195-9.195,0.152c-2.61-0.372-4.931-0.443-6.586-0.185
	c-3.06,0.477-6.096,1.596-8.734,3.298c-0.192-0.066-0.388-0.137-0.576-0.198c-6.852-2.229-14.677-2.113-21.479,0.264
	c-0.457,0.16-0.934,0.335-1.421,0.524c-4.504-0.766-8.963,1.917-10.505,6.37c-0.148,0.428-0.251,0.854-0.335,1.28
	c-2.181-1.134-4.422-2.026-6.726-2.627c0.468-3.301-2.022-6.985-6.02-5.565c-7.867,2.794-14.745,7.131-20.471,13.23
	c-4.479,4.771,2.179,11.124,7.071,7.071c1.982-1.642,4.04-3.151,6.159-4.577c0.312-0.033,0.629-0.085,0.956-0.184
	c14.322-4.333,21.595,9.461,33.616,13.789c2.11,0.76,5.086,1.082,8.321,0.951c2.511,2.719,6.536,3.175,10.477,2.949
	c6.324-0.363,12.656-1.199,18.889-2.316c5.76-1.032,14.502-2.338,19.421-6.609c4.206-0.855,8.055-3.392,9.593-7.594
	c0.162-0.442,0.287-0.883,0.39-1.323c2.317-0.659,5.071-1.543,7.696-2.736c2.653,0.128,5.311-0.036,7.348-0.035
	c0.462,0,0.924-0.011,1.387-0.016c-2.021,3.464,1.602,8.468,5.775,7.23c5.614-1.665,11.781-3.769,15.19-8.893
	c0.125-0.189,0.242-0.384,0.359-0.579c3.821-0.706,7.96-1.526,11.036-3.789c0.62,0.131,1.249,0.218,1.883,0.258
	c0.316,0.701,0.738,1.344,1.259,1.914c-0.269,2.46,0.041,5.038,1.236,6.981c-1.657,0.668-3.28,1.465-4.878,2.433
	c-4.004,2.425-2.632,7.559,1.194,9.139c9.235,3.813,18.965,4.425,28.737,4.904c7.309,2.695,15.303,3.377,23.311,1.902
	c1.771-0.326,2.879-1.61,3.336-3.141c6.048,1.957,12.324,2.229,16.659-3.685c1.656-2.26,0.273-5.48-1.794-6.841
	c-2.439-1.606-4.976-3.015-7.58-4.265c1.329-2.769,0.779-6.134-2.771-8.471c-0.95-0.625-2.053-1.157-3.25-1.589
	c-0.889-1.467-1.915-2.823-3.065-4.053c0.584-1.706,0.491-3.573-0.47-5.261C363.728,98.337,365.46,96.772,365.904,94.054z
	 M223.222,124.163c-1.372,0.211-2.766,0.344-4.166,0.456c0.201-0.318,0.375-0.648,0.534-0.985c2.941,0,5.929-0.306,8.745-0.993
	c0.063,0.05,0.126,0.101,0.191,0.151c0.029,0.151,0.057,0.303,0.102,0.448C226.829,123.575,225.025,123.885,223.222,124.163z"/>
<path d="M488.5,511c-3.217,0-3.223,5,0,5C491.717,516,491.723,511,488.5,511z"/>
</svg>
