<?xml version="1.0" encoding="iso-8859-1"?>
<!-- Generator: Adobe Illustrator 18.1.1, SVG Export Plug-In . SVG Version: 6.00 Build 0)  -->
<svg version="1.1" id="Capa_1" xmlns="http://www.w3.org/2000/svg" xmlns:xlink="http://www.w3.org/1999/xlink" x="0px" y="0px"
	 viewBox="0 0 25.627 25.627" style="enable-background:new 0 0 25.627 25.627;" xml:space="preserve">
<g>
	<g>
		<path style="fill:rgb(255, 255, 250);" d="M9.813,8.001c4.308,0,7.813,3.505,7.813,7.813s-3.505,7.812-7.813,7.812s-7.812-3.505-7.812-7.813
			S5.505,8.001,9.813,8.001 M9.813,6.001C4.396,6.001,0,10.397,0,15.814s4.396,9.812,9.813,9.812s9.813-4.396,9.813-9.813
			S15.23,6.001,9.813,6.001L9.813,6.001z"/>
	</g>
	<g>
		<path style="fill:rgb(205, 205, 200);" d="M18.813,0.001c-3.59,0-6.526,2.782-6.787,6.305c1.889,0.45,3.563,1.442,4.854,2.809
			c0.118-0.009,0.287-0.025,0.518-0.047c0.25-0.026,0.244-0.053,0.338-0.079c0.121-0.04,0.214-0.104,0.279-0.191
			c0.063-0.088,0.095-0.22,0.095-0.395V5.127h-1.283V4.635h0.323c0.421,0,0.8-0.079,1.133-0.236
			c0.336-0.154,0.573-0.322,0.719-0.502h0.685c-0.01,0.254-0.021,0.549-0.034,0.889c-0.012,0.342-0.019,0.645-0.019,0.915v2.636
			c0,0.138,0.031,0.259,0.092,0.366s0.147,0.187,0.261,0.238c0.101,0.042,0.267,0.081,0.498,0.115
			c0.231,0.037,0.204,0.057,0.317,0.06v0.636h-3.364c0.883,1.112,1.526,2.421,1.861,3.85c3.534-0.25,6.328-3.19,6.328-6.788
			C25.626,3.052,22.574,0.001,18.813,0.001z"/>
	</g>
	<g>
		<path class="point-mark" style="fill:rgb(255, 255, 250);" d="M12.309,15.012c0.34,0.227,0.626,0.531,0.856,0.915c0.231,0.384,0.348,0.86,0.348,1.428
			c0,0.999-0.386,1.815-1.162,2.448c-0.773,0.634-1.762,0.95-2.965,0.95c-0.931,0-1.708-0.199-2.329-0.599
			c-0.623-0.399-0.934-0.872-0.934-1.416c0-0.325,0.104-0.595,0.31-0.817c0.208-0.224,0.482-0.336,0.827-0.336
			c0.359,0,0.653,0.097,0.883,0.29c0.229,0.194,0.345,0.452,0.345,0.774c0,0.227-0.038,0.474-0.117,0.741
			c-0.077,0.268-0.14,0.474-0.189,0.613c0.108,0.041,0.235,0.072,0.381,0.092c0.145,0.021,0.281,0.031,0.408,0.031
			c0.259,0,0.513-0.059,0.763-0.174s0.464-0.285,0.64-0.508c0.205-0.254,0.359-0.556,0.465-0.903
			c0.104-0.347,0.157-0.741,0.157-1.182c0-0.64-0.174-1.165-0.518-1.574c-0.342-0.413-0.786-0.619-1.331-0.619
			c-0.425,0-0.778,0.086-1.066,0.256c-0.284,0.172-0.541,0.395-0.77,0.672l-0.526-0.177l0.661-5.015h5.639v1.88H7.938L7.657,15.03
			c0.244-0.153,0.559-0.302,0.946-0.442c0.387-0.142,0.84-0.211,1.361-0.211c0.403,0,0.804,0.044,1.195,0.134
			C11.552,14.599,11.936,14.767,12.309,15.012z"/>
	</g>
</g>
</svg>
