<svg xmlns="http://www.w3.org/2000/svg" xmlns:xlink="http://www.w3.org/1999/xlink" version="1.1" id="Capa_1" x="0px" y="0px" viewBox="0 0 512.002 512.002" style="enable-background:new 0 0 512.002 512.002;" xml:space="preserve" width="512" height="512">
<g>
	<g>
		<g>
			<path style="fill:#FCAB29;" d="M453.916,164.582l44.8-27.886c7.712-4.8,7.712-16.026,0-20.826l-44.8-27.886H20.072     c-6.943,0-12.572,5.629-12.572,12.572v51.453c0,6.943,5.629,12.572,12.572,12.572H453.916z"/>
			<path style="fill:#DD8D19;" d="M7.5,152.01l0-20.195c0,1.493,5.629,2.703,12.572,2.703l433.844,0l44.8-5.996     c3.856-0.516,5.784-1.377,5.784-2.239c0,4.007-1.928,8.013-5.784,10.413l-44.8,27.886l-433.844,0     C13.129,164.582,7.5,158.954,7.5,152.01z"/>
			<path style="fill:#EC86C8;" d="M48.539,152.01v-51.453c0-6.943,5.629-12.572,12.572-12.572H20.072     c-6.943,0-12.572,5.629-12.572,12.572v51.453c0,6.943,5.629,12.572,12.572,12.572h41.039     C54.168,164.582,48.539,158.954,48.539,152.01z"/>
			<path style="fill:#D770B7;" d="M61.111,164.582c-6.943,0-12.572-5.629-12.572-12.572v-17.492H20.072     c-6.943,0-12.571-1.21-12.572-2.703v20.195c0,0.802,0.083,1.583,0.226,2.343c0.028,0.147,0.06,0.292,0.092,0.437     c0.14,0.62,0.328,1.222,0.556,1.804c0.246,0.627,0.542,1.227,0.881,1.8c2.188,3.699,6.207,6.188,10.817,6.188H61.111z"/>
			<path style="fill:#444966;" d="M498.716,136.697l-44.8,27.886V87.985l44.8,27.886     C506.428,120.671,506.428,131.897,498.716,136.697z"/>
			<path style="fill:#2E344C;" d="M453.916,164.582l0-30.064l44.8-5.996c3.856-0.516,5.784-1.377,5.784-2.239     c0,2.83-0.982,5.648-2.906,7.912c-0.8,0.941-1.745,1.796-2.877,2.501L453.916,164.582z"/>
		</g>
		<g>
			<path style="fill: #D7E6D8;" d="M413.574,87.36v305.373l-82.899,82.898H114.93c-15.942,0-28.865-12.923-28.865-28.865V58.495     h298.644C400.651,58.495,413.574,71.418,413.574,87.36z"/>
			
			<polygon style="fill:#D1D6DE;" points="413.574,392.733 330.675,392.733 330.675,475.631    "/>
			<path style="fill: #4FC497;" d="M156.49,176.963c-1.919,0-3.839-0.732-5.303-2.197l-14.833-14.833     c-2.929-2.929-2.929-7.678,0-10.606c2.929-2.929,7.678-2.929,10.606,0l9.53,9.53l22.304-22.304c2.929-2.929,7.678-2.929,10.606,0     c2.929,2.929,2.929,7.678,0,10.606l-27.607,27.607C160.329,176.23,158.41,176.963,156.49,176.963z"/>
			<path style="fill: #4FC497;" d="M156.49,282.241L156.49,282.241c-1.989,0-3.897-0.79-5.303-2.197l-14.833-14.834     c-2.929-2.929-2.929-7.678,0-10.606c2.929-2.929,7.678-2.93,10.606,0l9.53,9.531l22.304-22.304c2.929-2.929,7.678-2.929,10.606,0     c2.929,2.929,2.929,7.678,0,10.606l-27.607,27.607C160.387,281.451,158.479,282.241,156.49,282.241z"/>
			<path style="fill: #c44e50;" d="M162.877,399.056c-18.904,0-34.283-15.379-34.283-34.283s15.379-34.283,34.283-34.283     c18.903,0,34.283,15.379,34.283,34.283S181.781,399.056,162.877,399.056z M162.877,345.49c-10.633,0-19.283,8.65-19.283,19.283     s8.65,19.283,19.283,19.283c10.632,0,19.283-8.65,19.283-19.283S173.51,345.49,162.877,345.49z"/>
		</g>
	</g>
	<g>
		<path d="M502.684,109.504l-44.8-27.89c-0.563-0.35-1.169-0.616-1.798-0.806c-0.013-0.004-0.025-0.01-0.037-0.013    c-0.237-0.07-0.479-0.117-0.721-0.163c-0.091-0.017-0.179-0.043-0.27-0.057c-0.211-0.032-0.424-0.043-0.638-0.058    c-0.126-0.009-0.25-0.024-0.376-0.026c-0.041-0.001-0.082-0.009-0.123-0.009h-33.507c-3.225-16.773-18.004-29.486-35.704-29.486    H371.45V36.371c0-4.142-3.358-7.5-7.5-7.5s-7.5,3.358-7.5,7.5v14.624h-61.087V36.371c0-4.142-3.358-7.5-7.5-7.5    s-7.5,3.358-7.5,7.5v14.624h-61.087V36.371c0-4.142-3.358-7.5-7.5-7.5s-7.5,3.358-7.5,7.5v14.624h-61.087V36.371    c0-4.142-3.358-7.5-7.5-7.5s-7.5,3.358-7.5,7.5v14.624H86.064c-4.142,0-7.5,3.358-7.5,7.5v21.986H20.07    c-7.99,0-14.884,4.708-18.111,11.486C0.716,94.575,0,97.481,0,100.557v5.486c0,4.142,3.358,7.5,7.5,7.5s7.5-3.358,7.5-7.5v-5.482    c0-0.808,0.207-1.563,0.543-2.241c0.83-1.672,2.539-2.835,4.529-2.835h21.615c-0.423,1.621-0.649,3.321-0.649,5.072v51.453    c0,1.751,0.225,3.45,0.649,5.071H20.07c-0.699,0-1.365-0.142-1.971-0.399c-0.016-0.007-0.03-0.018-0.046-0.025    c-0.285-0.124-0.559-0.27-0.814-0.443C15.889,155.302,15,153.758,15,152.01v-15.967c0-4.142-3.358-7.5-7.5-7.5s-7.5,3.358-7.5,7.5    v15.967v0v0c0,6.917,3.517,13.028,8.857,16.638c0.428,0.289,0.876,0.55,1.326,0.807c0.111,0.063,0.215,0.138,0.328,0.199    c2.844,1.547,6.102,2.427,9.561,2.427h41.039c0.007,0,0.013-0.001,0.019-0.001h17.434v192.692c0,4.142,3.358,7.5,7.5,7.5    s7.5-3.358,7.5-7.5V65.995h34.625v14.624c0,4.142,3.358,7.5,7.5,7.5s7.5-3.358,7.5-7.5V65.995h61.087v14.624    c0,4.142,3.358,7.5,7.5,7.5s7.5-3.358,7.5-7.5V65.995h61.087v14.624c0,4.142,3.358,7.5,7.5,7.5s7.5-3.358,7.5-7.5V65.995h61.087    v14.624c0,4.142,3.358,7.5,7.5,7.5s7.5-3.358,7.5-7.5V65.995h13.258c11.781,0,21.365,9.584,21.365,21.365v0.544    c0,0.026-0.004,0.051-0.004,0.077s0.004,0.051,0.004,0.077v76.445c0,0.026-0.004,0.051-0.004,0.077s0.004,0.051,0.004,0.077    v46.386c0,4.142,3.358,7.5,7.5,7.5s7.5-3.358,7.5-7.5v-38.964H453.9c0.005,0,0.01,0.001,0.016,0.001    c0.348,0,0.696-0.025,1.042-0.073c0.105-0.015,0.206-0.046,0.309-0.065c0.236-0.043,0.472-0.083,0.704-0.149    c0.219-0.062,0.43-0.149,0.643-0.231c0.111-0.043,0.225-0.073,0.334-0.121c0.322-0.142,0.634-0.306,0.935-0.493l44.801-27.881    c5.835-3.633,9.319-9.907,9.318-16.782C512.002,119.41,508.519,113.137,502.684,109.504z M61.101,157.081    c-2.792-0.005-5.063-2.278-5.063-5.071v-51.453c0-2.797,2.275-5.072,5.072-5.072c0.026,0,0.051-0.004,0.077-0.004h17.376v61.6    H61.101z M497,126.284c0,0.796-0.219,2.783-2.247,4.046c0,0,0,0,0,0l-33.336,20.75v-49.592l33.336,20.75    C496.781,123.501,497,125.488,497,126.284z M421.074,95.481h25.343v61.6h-25.343V95.481z" style="&#10;    fill: #333333;&#10;"/>
		<path d="M413.574,233.545c-4.142,0-7.5,3.358-7.5,7.5v144.188h-75.398c-4.142,0-7.5,3.358-7.5,7.5v75.398H114.93    c-11.781,0-21.365-9.584-21.365-21.365v-51.992c0-4.142-3.358-7.5-7.5-7.5s-7.5,3.358-7.5,7.5v51.992    c0,20.052,16.313,36.365,36.365,36.365h215.746c0.031,0,0.061-0.004,0.091-0.004c0.215-0.003,0.429-0.011,0.642-0.032    c0.116-0.011,0.23-0.034,0.345-0.051c0.127-0.019,0.254-0.032,0.38-0.057c0.121-0.024,0.24-0.059,0.36-0.089    c0.117-0.029,0.235-0.053,0.35-0.088c0.113-0.034,0.223-0.079,0.334-0.118c0.119-0.042,0.24-0.08,0.357-0.128    c0.099-0.041,0.193-0.091,0.291-0.136c0.125-0.058,0.252-0.112,0.374-0.177c0.092-0.049,0.178-0.107,0.268-0.159    c0.122-0.072,0.246-0.139,0.364-0.218c0.101-0.067,0.196-0.144,0.294-0.217c0.1-0.074,0.204-0.143,0.301-0.223    c0.192-0.157,0.377-0.324,0.554-0.501l82.899-82.898c0.003-0.003,0.006-0.007,0.009-0.011c0.232-0.233,0.441-0.484,0.639-0.743    c0.052-0.068,0.103-0.136,0.152-0.206c0.188-0.264,0.364-0.534,0.515-0.819c0.01-0.02,0.018-0.04,0.028-0.06    c0.14-0.269,0.259-0.547,0.366-0.831c0.03-0.08,0.059-0.16,0.086-0.241c0.102-0.302,0.192-0.609,0.255-0.924    c0.002-0.012,0.003-0.024,0.005-0.036c0.059-0.303,0.093-0.611,0.115-0.921c0.006-0.089,0.01-0.177,0.013-0.267    c0.003-0.082,0.012-0.163,0.012-0.245V241.045C421.074,236.903,417.716,233.545,413.574,233.545z M338.175,400.233h57.292    l-57.292,57.292V400.233z" style="&#10;    fill: #333333;&#10;"/>
		<path d="M247.347,145.512h105.072c4.142,0,7.5-3.358,7.5-7.5s-3.358-7.5-7.5-7.5H247.347c-4.142,0-7.5,3.358-7.5,7.5    S243.205,145.512,247.347,145.512z" style="&#10;    fill: #333333;&#10;"/>
		<path d="M247.347,180.806h37.084c4.142,0,7.5-3.358,7.5-7.5s-3.358-7.5-7.5-7.5h-37.084c-4.142,0-7.5,3.358-7.5,7.5    S243.205,180.806,247.347,180.806z" style="&#10;    fill: #333333;&#10;"/>
		<path d="M247.347,250.79h105.072c4.142,0,7.5-3.358,7.5-7.5s-3.358-7.5-7.5-7.5H247.347c-4.142,0-7.5,3.358-7.5,7.5    S243.205,250.79,247.347,250.79z" style="&#10;    fill: #333333;&#10;"/>
		<path d="M247.347,286.085h37.084c4.142,0,7.5-3.358,7.5-7.5s-3.358-7.5-7.5-7.5h-37.084c-4.142,0-7.5,3.358-7.5,7.5    S243.205,286.085,247.347,286.085z" style="&#10;    fill: #333333;&#10;"/>
		<path d="M247.347,356.068h105.072c4.142,0,7.5-3.358,7.5-7.5s-3.358-7.5-7.5-7.5H247.347c-4.142,0-7.5,3.358-7.5,7.5    S243.205,356.068,247.347,356.068z" style="&#10;    fill: #333333;&#10;"/>
		<path d="M247.347,391.363h37.084c4.142,0,7.5-3.358,7.5-7.5s-3.358-7.5-7.5-7.5h-37.084c-4.142,0-7.5,3.358-7.5,7.5    S243.205,391.363,247.347,391.363z" style="&#10;    fill: #333333;&#10;"/>
	</g>
</g>
</svg>